<?xml version="1.0" encoding="UTF-8"?><svg id="Layer_2" xmlns="http://www.w3.org/2000/svg" xmlns:xlink="http://www.w3.org/1999/xlink" viewBox="0 0 1000.57 262.7"><defs><style>.cls-1{clip-path:url(#clippath);}.cls-2{fill:none;}.cls-2,.cls-3,.cls-4,.cls-5{stroke-width:0px;}.cls-6{clip-path:url(#clippath-2);}.cls-3{fill:#f2f2f3;}.cls-4{fill:#f8f7f7;}.cls-5{fill:#090909;}</style><clipPath id="clippath"><rect class="cls-2" x=".57" y="19.3" width="171.32" height="177.94"/></clipPath><clipPath id="clippath-2"><rect class="cls-2" x=".57" y="19.3" width="171.32" height="177.94"/></clipPath></defs><path class="cls-4" d="m270.48,93.48c-1.88-5.85-3.79-10.45-5.72-13.82-1.93-3.37-4.19-5.87-6.76-7.51-2.58-1.63-5.67-2.65-9.29-3.05-3.62-.4-8.1-.6-13.45-.6v68.98c0,4.16.12,7.61.37,10.33.25,2.73.89,4.93,1.93,6.62,1.04,1.69,2.6,2.92,4.68,3.72,2.08.79,4.95,1.34,8.62,1.63v1.78c-3.77-.2-7.53-.35-11.3-.45-3.77-.1-7.53-.15-11.3-.15s-7.28.05-10.85.15c-3.57.1-7.14.25-10.7.45v-1.78c3.57-.3,6.34-.84,8.32-1.63,1.98-.79,3.49-2.03,4.53-3.72,1.04-1.68,1.68-3.89,1.93-6.62.25-2.72.37-6.17.37-10.33v-68.98c-5.25,0-9.64.2-13.16.6-3.52.4-6.57,1.41-9.14,3.05-2.58,1.64-4.83,4.14-6.76,7.51-1.93,3.37-3.84,7.98-5.72,13.82l-1.93-.59,2.08-29.14c4.16.2,8.27.35,12.34.45,4.06.1,8.18.15,12.34.15h34.93c3.96,0,7.88-.05,11.74-.15,3.86-.1,7.78-.25,11.74-.45l2.08,29.14-1.93.59Zm60.58,27.95c1.54,3.67,2.3,7.73,2.3,12.19s-.77,8.52-2.3,12.19c-1.54,3.67-3.72,6.79-6.54,9.36-2.82,2.58-6.19,4.59-10.11,6.02-3.92,1.43-8.25,2.15-13.01,2.15s-9.09-.72-13.01-2.15c-3.92-1.44-7.28-3.44-10.11-6.02-2.82-2.58-5.01-5.7-6.54-9.36-1.54-3.67-2.3-7.73-2.3-12.19s.77-8.52,2.3-12.19c1.54-3.67,3.72-6.79,6.54-9.37,2.82-2.58,6.19-4.58,10.11-6.02,3.91-1.44,8.25-2.16,13.01-2.16s9.09.72,13.01,2.16c3.91,1.44,7.28,3.44,10.11,6.02,2.82,2.58,5,5.7,6.54,9.37Zm-10.78,13.97c0-3.07-.45-6.22-1.34-9.44-.89-3.22-2.23-6.14-4.01-8.77-1.78-2.62-4.01-4.76-6.69-6.39s-5.85-2.45-9.51-2.45c-2.78,0-5.18.69-7.21,2.08-2.03,1.39-3.72,3.2-5.05,5.43s-2.33,4.76-2.97,7.58c-.65,2.83-.97,5.63-.97,8.4,0,3.17.42,6.34,1.26,9.51.84,3.17,2.16,6.07,3.94,8.7,1.78,2.63,4.01,4.76,6.69,6.39,2.68,1.64,5.89,2.45,9.66,2.45,2.77,0,5.18-.69,7.21-2.08,2.03-1.39,3.72-3.2,5.05-5.43s2.33-4.73,2.97-7.51c.64-2.77.97-5.6.97-8.47Zm90.16-13.53c1.34,3.67,2.01,7.68,2.01,12.04s-.87,8.65-2.6,12.26c-1.73,3.62-4.06,6.69-6.99,9.22-2.92,2.53-6.34,4.48-10.26,5.87-3.92,1.39-8,2.08-12.26,2.08-3.07,0-6.09-.37-9.07-1.11s-5.8-1.96-8.47-3.64v24.83c0,2.38.15,4.31.45,5.8.3,1.49,1.06,2.68,2.3,3.57,1.24.89,3.07,1.54,5.5,1.93,2.43.4,5.77.64,10.03.74v1.78c-3.67-.2-7.34-.35-11-.45-3.67-.1-7.34-.15-11-.15-3.37,0-6.71.05-10.03.15-3.32.1-6.67.25-10.03.45v-1.78c2.08-.2,3.87-.47,5.35-.82,1.49-.35,2.75-.89,3.79-1.64s1.81-1.78,2.3-3.12c.49-1.34.74-3.15.74-5.43v-64.81c0-4.16-.84-6.94-2.53-8.33-1.69-1.39-4.56-2.28-8.62-2.68v-1.64l22.74-2.23v6.24c3.57-2.58,6.91-4.41,10.03-5.5,3.12-1.09,6.86-1.64,11.22-1.64s8.3.74,11.82,2.23c3.52,1.49,6.49,3.57,8.92,6.24,2.43,2.68,4.31,5.85,5.65,9.52Zm-11.08,12.34c0-2.97-.37-5.95-1.11-8.92-.74-2.97-1.86-5.65-3.34-8.03-1.49-2.38-3.37-4.31-5.65-5.8-2.28-1.49-4.96-2.23-8.03-2.23-4.46,0-8.38.84-11.74,2.53-3.37,1.69-5.6,3.87-6.69,6.54v29.44c1.09,2.97,3.34,5.57,6.76,7.8,3.42,2.23,7.31,3.34,11.67,3.34,6.14,0,10.7-2.33,13.68-6.99,2.97-4.66,4.46-10.56,4.46-17.69Zm91.5-18.58c-2.73-2.48-5.82-4.61-9.29-6.39-3.47-1.78-7.01-3.44-10.63-4.98-3.62-1.54-7.16-3.05-10.63-4.53-3.47-1.49-6.57-3.12-9.29-4.91-2.73-1.78-4.91-3.84-6.54-6.17-1.64-2.33-2.45-5.08-2.45-8.25,0-5.35,1.81-9.07,5.43-11.15,3.62-2.08,8.25-3.12,13.9-3.12,3.87,0,7.43.74,10.7,2.23,3.27,1.49,6.24,3.44,8.92,5.87,2.68,2.43,5.03,5.2,7.06,8.33,2.03,3.12,3.69,6.27,4.98,9.44h2.08c-.5-4.26-.82-8.5-.97-12.71-.15-4.21-.22-8.55-.22-13.01-3.17,0-6.15-.27-8.92-.82-2.78-.54-5.6-1.11-8.47-1.71-2.78-.59-5.63-1.14-8.55-1.64-2.92-.49-6.22-.74-9.89-.74s-7.31.59-10.63,1.78c-3.32,1.19-6.24,2.9-8.77,5.12-2.53,2.23-4.53,4.92-6.02,8.09-1.49,3.17-2.23,6.68-2.23,10.54,0,5.15,1.44,9.4,4.31,12.77,2.87,3.37,6.44,6.29,10.7,8.76,4.26,2.47,8.89,4.7,13.9,6.68,5,1.98,9.64,4.13,13.9,6.46,4.26,2.33,7.83,5.04,10.7,8.16,2.87,3.12,4.31,7,4.31,11.65,0,3.27-.59,6.01-1.78,8.24-1.19,2.23-2.8,4.04-4.83,5.42-2.03,1.38-4.39,2.4-7.06,3.04-2.68.64-5.45.96-8.32.96-4.46,0-8.6-1.04-12.41-3.11-3.82-2.07-7.31-4.66-10.48-7.77-3.17-3.11-6.02-6.53-8.55-10.28-2.53-3.75-4.68-7.35-6.47-10.8l-1.93,1.04c1.29,5.62,2.53,11.12,3.72,16.5,1.19,5.38,2.23,10.88,3.12,16.51,1.09-.39,2.13-.77,3.12-1.11.99-.35,2.03-.52,3.12-.52,1.19,0,2.8.23,4.83.69,2.03.46,4.29.97,6.76,1.54,2.48.56,5.05,1.08,7.73,1.54,2.68.46,5.25.69,7.73.69,4.56,0,8.85-.55,12.86-1.63,4.01-1.09,7.53-2.77,10.55-5.05,3.02-2.28,5.43-5.18,7.21-8.7,1.78-3.52,2.68-7.7,2.68-12.56,0-4.56-.82-8.47-2.45-11.74-1.64-3.27-3.82-6.14-6.54-8.62Zm66.22,39.47c-3.27,1.34-6.74,2.01-10.41,2.01-3.47,0-6.62-.67-9.44-2.01-2.82-1.34-5.23-3.17-7.21-5.5-1.98-2.33-3.52-4.98-4.61-7.95-1.09-2.97-1.64-6.09-1.64-9.37,0-2.87.32-5.77.97-8.7.64-2.92,1.64-5.55,2.97-7.88,1.34-2.33,3.1-4.24,5.28-5.72,2.18-1.49,4.81-2.23,7.88-2.23s5.77.65,8.1,1.93c2.33,1.29,4.36,2.93,6.09,4.91,1.73,1.98,3.22,4.24,4.46,6.76,1.24,2.53,2.35,5.03,3.34,7.51h1.78l-1.93-22.6c-3.47-.69-6.94-1.26-10.41-1.71-3.47-.45-7.28-.67-11.45-.67-3.87,0-7.56.8-11.08,2.38-3.52,1.59-6.59,3.72-9.22,6.39-2.63,2.68-4.73,5.82-6.32,9.44-1.59,3.62-2.38,7.46-2.38,11.52s.79,7.9,2.38,11.52c1.58,3.62,3.69,6.76,6.32,9.44,2.63,2.68,5.7,4.81,9.22,6.39,3.52,1.58,7.21,2.38,11.08,2.38,5.35,0,10.18-.92,14.49-2.75,4.31-1.83,8.7-4.58,13.16-8.25l-2.08-2.38c-2.97,2.08-6.09,3.79-9.36,5.13Zm81.31-4.24v-26.16c0-3.96-.59-7.28-1.78-9.96-1.19-2.68-2.78-4.81-4.76-6.39-1.98-1.58-4.24-2.73-6.76-3.42-2.53-.69-5.18-1.04-7.95-1.04-3.17,0-6.49.94-9.96,2.83-3.47,1.88-6.54,3.87-9.22,5.95v-57.53l-22.74,2.53v1.78c2.18.1,3.99.3,5.43.59,1.44.3,2.58.97,3.42,2.01.84,1.04,1.43,2.58,1.78,4.61.35,2.03.52,4.83.52,8.4v75.82c0,3.27-.89,5.43-2.68,6.47-1.78,1.04-4.36,1.86-7.73,2.45v1.78c2.28-.2,4.48-.35,6.62-.45,2.13-.1,4.33-.15,6.62-.15,3.37,0,6.71.05,10.03.15,3.32.1,6.66.25,10.03.45v-1.78c-3.77-.59-6.59-1.41-8.47-2.45-1.88-1.04-2.82-3.2-2.82-6.47v-31.51c0-.89.49-1.83,1.49-2.83.99-.99,2.23-1.91,3.72-2.75,1.49-.84,3.12-1.51,4.91-2.01,1.78-.49,3.52-.74,5.2-.74,4.76,0,8.2,1.39,10.33,4.16,2.13,2.78,3.2,6.69,3.2,11.74v23.93c0,3.27-.87,5.43-2.6,6.47-1.74,1.04-4.19,1.86-7.36,2.45v1.78c1.98-.2,4.04-.35,6.17-.45,2.13-.1,4.33-.15,6.62-.15,3.37,0,6.69.05,9.96.15,3.27.1,6.34.25,9.22.45v-1.78c-3.37-.59-5.95-1.41-7.73-2.45-1.78-1.04-2.68-3.2-2.68-6.47Zm80.79-29.43c1.54,3.67,2.3,7.73,2.3,12.19s-.77,8.52-2.3,12.19c-1.54,3.67-3.72,6.79-6.54,9.36-2.82,2.58-6.19,4.59-10.11,6.02-3.92,1.43-8.25,2.15-13.01,2.15s-9.09-.72-13.01-2.15c-3.92-1.44-7.28-3.44-10.11-6.02-2.83-2.58-5.01-5.7-6.54-9.36-1.54-3.67-2.3-7.73-2.3-12.19s.77-8.52,2.3-12.19c1.54-3.67,3.72-6.79,6.54-9.37,2.82-2.58,6.19-4.58,10.11-6.02,3.91-1.44,8.25-2.16,13.01-2.16s9.09.72,13.01,2.16c3.91,1.44,7.28,3.44,10.11,6.02,2.82,2.58,5,5.7,6.54,9.37Zm-10.78,13.97c0-3.07-.45-6.22-1.34-9.44-.89-3.22-2.23-6.14-4.01-8.77-1.78-2.62-4.01-4.76-6.69-6.39-2.68-1.64-5.85-2.45-9.51-2.45-2.78,0-5.18.69-7.21,2.08-2.03,1.39-3.72,3.2-5.05,5.43-1.34,2.23-2.33,4.76-2.97,7.58-.65,2.83-.97,5.63-.97,8.4,0,3.17.42,6.34,1.26,9.51.84,3.17,2.16,6.07,3.94,8.7,1.78,2.63,4.01,4.76,6.69,6.39,2.68,1.64,5.9,2.45,9.66,2.45,2.77,0,5.18-.69,7.21-2.08,2.03-1.39,3.72-3.2,5.05-5.43s2.33-4.73,2.97-7.51c.64-2.77.97-5.6.97-8.47Zm44.37,20.81c-.84-1.09-1.36-2.58-1.56-4.46-.2-1.88-.3-4.26-.3-7.14V55.12l-21.85,2.68v1.78c4.46,0,7.28.77,8.47,2.3,1.19,1.54,1.78,4.24,1.78,8.1v74.63c0,2.88-.1,5.25-.3,7.14-.2,1.88-.69,3.37-1.49,4.46-.79,1.09-1.93,1.91-3.42,2.45-1.49.55-3.47.92-5.95,1.11v1.78c2.77-.2,5.52-.35,8.25-.45,2.73-.1,5.52-.15,8.4-.15s5.97.05,8.99.15c3.02.1,5.97.25,8.85.45v-1.78c-2.68-.2-4.78-.57-6.32-1.11-1.54-.54-2.73-1.36-3.57-2.45Zm81.39-6.24l1.49,1.63c-.99.99-2.15,2.16-3.49,3.49-1.34,1.34-2.75,2.63-4.24,3.87-1.49,1.24-3,2.28-4.53,3.12-1.54.84-3.05,1.26-4.53,1.26-.99,0-2.03-.32-3.12-.97-1.09-.65-2.16-1.41-3.2-2.3-1.04-.89-2.01-1.83-2.9-2.83-.89-.99-1.69-1.83-2.38-2.53-3.17,2.18-6.74,4.16-10.7,5.95-3.97,1.78-7.83,2.68-11.59,2.68-2.08,0-4.09-.35-6.02-1.04-1.93-.7-3.64-1.68-5.13-2.97-1.49-1.29-2.68-2.82-3.57-4.61-.89-1.78-1.34-3.81-1.34-6.09,0-4.06,1.14-7.31,3.42-9.74,2.28-2.43,5.23-4.29,8.84-5.57,3.62-1.29,7.73-2.16,12.34-2.6,4.61-.45,9.24-.72,13.9-.82v-11.3c0-3.66-1.14-6.49-3.42-8.47-2.28-1.98-5.15-2.97-8.62-2.97-2.58,0-4.61,1.29-6.09,3.87-1.49,2.58-2.23,5.5-2.23,8.77l-12.19-2.23c.79-3.07,1.91-5.52,3.34-7.36,1.44-1.83,3.1-3.22,4.98-4.16,1.88-.94,4.01-1.54,6.39-1.78,2.38-.25,4.91-.37,7.58-.37s5.13.27,7.66.82c2.53.55,4.81,1.46,6.84,2.75,2.03,1.29,3.67,3,4.91,5.13,1.24,2.13,1.86,4.73,1.86,7.8v27.5c0,1.88.49,3.54,1.49,4.98.99,1.44,2.53,2.15,4.61,2.15s3.74-.57,5.28-1.71c1.54-1.14,3-2.25,4.39-3.34Zm-27.06-14.27c-3.27-.89-6.59-1.34-9.96-1.34-1.88,0-3.77.22-5.65.67-1.88.45-3.57,1.17-5.05,2.15-1.49.99-2.7,2.26-3.64,3.79-.94,1.54-1.41,3.4-1.41,5.57,0,3.37,1.16,5.77,3.49,7.21,2.33,1.44,4.93,2.16,7.81,2.16,3.17,0,6.07-.64,8.7-1.93,2.62-1.29,4.53-2.38,5.72-3.27v-15.01Zm71.35-33.9c-1.69,0-3.42.45-5.2,1.34s-3.54,1.96-5.28,3.2c-1.74,1.24-3.37,2.5-4.91,3.79-1.54,1.29-2.9,2.33-4.09,3.12v-8.47l-21.7,3.27v1.78c2.68,0,5.03.35,7.06,1.04,2.03.69,3.05,2.53,3.05,5.5v34.49c0,3.27-.89,5.43-2.68,6.47-1.78,1.04-4.36,1.86-7.73,2.45v1.78c2.28-.2,4.48-.35,6.61-.45,2.13-.1,4.33-.15,6.62-.15,3.37,0,6.71.05,10.03.15,3.32.1,6.66.25,10.04.45v-1.78c-3.77-.59-6.59-1.41-8.47-2.45-1.88-1.04-2.83-3.2-2.83-6.47v-31.51c.89-.89,1.91-1.93,3.05-3.12,1.14-1.19,2.35-2.3,3.64-3.34,1.29-1.04,2.62-1.91,4.01-2.6,1.39-.69,2.77-1.04,4.16-1.04,1.68,0,3.02.62,4.01,1.86.99,1.24,1.49,2.55,1.49,3.94,0,1.19-.1,2.15-.3,2.9-.2.74-.4,1.46-.59,2.16l11.89-6.24c-.2-3.77-1.26-6.71-3.2-8.85-1.93-2.13-4.83-3.2-8.7-3.2Zm62.36,35.9c-1.83-2.23-4.09-4.11-6.76-5.65-2.68-1.53-5.63-2.85-8.85-3.94-3.22-1.09-6.17-2.2-8.85-3.34-2.68-1.14-4.93-2.38-6.76-3.72-1.84-1.34-2.75-3.05-2.75-5.13,0-2.87.99-4.85,2.97-5.95,1.98-1.09,4.21-1.63,6.69-1.63,2.18,0,4.31.42,6.39,1.26,2.08.84,4.04,1.93,5.87,3.27,1.83,1.34,3.49,2.88,4.98,4.61,1.49,1.74,2.72,3.55,3.72,5.43h1.93l-.89-15.76c-3.77-.2-7.41-.79-10.93-1.78-3.52-.99-7.16-1.49-10.93-1.49-5.05,0-9.24,1.44-12.56,4.31-3.32,2.88-4.98,6.99-4.98,12.34,0,3.27.92,5.95,2.75,8.03,1.83,2.08,4.09,3.84,6.76,5.28,2.68,1.44,5.62,2.68,8.85,3.72,3.22,1.04,6.17,2.16,8.85,3.34,2.68,1.19,4.93,2.58,6.76,4.16,1.83,1.59,2.75,3.62,2.75,6.09,0,1.49-.35,2.73-1.04,3.72-.69.99-1.59,1.78-2.68,2.38-1.09.59-2.3,1.02-3.64,1.26-1.34.25-2.65.37-3.94.37-2.68,0-5.2-.49-7.58-1.49-2.38-.99-4.61-2.28-6.69-3.87-2.08-1.58-3.99-3.37-5.72-5.35-1.74-1.98-3.3-4.01-4.68-6.09h-2.08l1.19,17.24c1.29.2,2.77.5,4.46.89,1.68.4,3.49.84,5.43,1.34,1.93.5,3.99.92,6.17,1.26,2.18.35,4.46.52,6.84.52,2.97,0,5.77-.27,8.4-.82,2.63-.55,4.93-1.46,6.91-2.75,1.98-1.29,3.54-3.05,4.68-5.28,1.14-2.23,1.71-5.08,1.71-8.55,0-3.27-.92-6.02-2.75-8.25Z"/><g class="cls-1"><polygon class="cls-5" points="98.61 135.8 96.83 138.29 94.95 140.88 94.83 142.93 95.62 144.87 96.79 145.64 98.85 145.64 101.39 144.85 102.67 144.17 103.28 142.58 102.96 141.09 102.51 139.37 101.95 137.71 101.26 136.24 100.61 135.37 100.2 134.07 98.73 134.32 98.61 135.8"/><g class="cls-6"><path class="cls-3" d="m115.96,74.53c.49-.18.7-.25,1.09-.4-.21.38-.31.61-.45.83-.69,1.1-.54,1.88.27,2.87.84,1.02,1.79,1.82,2.92,2.46,1.38.78,2.23,3.8.84,5.16-.9.88-.74,2.11-.69,3.18.07,1.35.48,2.67.68,4.02.1.66.06,1.35.08,2.03,0,.16-.08.36-.02.48.56,1.02.19,1.97-.31,2.79-.77,1.27-.64,2.51-.28,3.84.46,1.71.86,3.43.57,5.25-.31,1.92-1.14,3.38-2.99,4.07-1.43.53-2.88.82-4.42.74-1.4-.08-2.8-.07-4.19-.02-1.4.05-1.69.28-1.75,1.74-.11,2.33-.65,4.54-1.33,6.73-.17.54-.1,1.05.46,1.22,2.4.7,4.25,2.37,6.28,3.75,4.25,2.91,8.57,5.71,12.81,8.63,3.22,2.21,6.47,4.35,10.13,5.69,2.63.96,5.26,1.94,7.9,2.88,1.91.68,3.21,2.14,4.24,3.8,3.14,5.06,5.89,10.32,7.31,16.23.06.24.14.47.23.7.28.72.1,1.28-.44,1.84-4.54,4.79-9.78,8.58-15.46,11.76-4.44,2.48-9.14,4.23-13.98,5.62-.91.26-1.82.57-2.73.84-.24.07-.49.1-.94.19.21-1.09.35-2.03.56-2.95.55-2.45,1.16-4.88,1.67-7.34.7-3.43,1.28-6.88,1.98-10.3.95-4.66,1.96-9.3,2.97-13.94.61-2.83,1.24-5.65,1.92-8.47.19-.79-.02-1.24-.66-1.62-5.59-3.36-11.18-6.73-16.77-10.1-.23-.14-.5-.22-.93-.41.08,1.65.12,3.11.22,4.58.29,4.09.14,8.15-.58,12.2-.63,3.6-1.02,7.26-1.7,10.85-.57,3-1.23,6.01-2.14,8.91-1.67,5.33-3.56,10.59-5.35,15.89-.46,1.37-.87,2.76-1.29,4.14-.09.28-.16.59-.16.88,0,1.32-.05,1.18-1.2,1.19-3.83.03-7.65.07-11.48.09-1.24,0-2.48-.09-3.72-.04-.85.04-1.11-.34-1.15-1.14-.06-1.28-.08-2.58-.31-3.84-.58-3.14-1.08-6.31-1.94-9.38-2.07-7.35-4.41-14.63-6.47-21.98-1.01-3.59-1.75-7.28-2.39-10.96-.69-3.98-1.11-8.02-1.64-12.03-.04-.27-.05-.55-.06-.82-.04-.94-.16-1.03-.98-.71-5.58,2.18-11.16,4.35-16.73,6.54-.89.35-1.76.75-2.61,1.18-1.19.6-1.32.76-1.06,2.11.57,3.03,1.18,6.05,1.87,9.06.96,4.15,2.03,8.27,3.01,12.41,1.19,5.02,2.33,10.05,3.52,15.08.83,3.51,1.71,7,2.56,10.5.04.17,0,.37,0,.73-.86-.2-1.67-.36-2.47-.58-4.72-1.3-9.38-2.76-13.77-5.04-7.58-3.93-14.64-8.61-20.49-15.09-.57-.63-.72-1.23-.41-2,2.18-5.34,4.25-10.74,6.61-16,.86-1.92,2.28-3.63,3.68-5.22.76-.86,1.95-1.39,3.02-1.87,7.18-3.18,14.38-6.31,21.58-9.43,3.19-1.38,6.4-2.71,9.62-4,1.71-.68,2.92-1.74,3.46-3.64.51-1.79.98-2.06,2.8-2.12,1.52-.05,1.78-.32,1.81-1.9.01-.58,0-1.15,0-1.73,0-.07-.07-.14-.14-.26-.72.35-.9-.16-1.13-.73-1.52-3.76-3.87-6.9-6.91-9.46-1.2-1.02-2.21-2.11-2.55-3.73-.17-.79-.68-1.11-1.41-1.2-1.54-.19-1.92-.62-2.34-2.17-.22-.8-.53-1.63-1.01-2.29-1.34-1.86-2.8-3.64-4.19-5.47-.48-.63-1.02-.82-1.8-.68-2.77.52-5.56.97-8.34,1.46-1.01.18-2.01.41-3.02.61-.61.12-.79.43-.68,1.1.19,1.1.28,2.22.36,3.34.15,2.18-.52,4.23-1.12,6.26-.56,1.9-1.33,3.74-1.96,5.62-.16.49-.25,1.09-.15,1.59.33,1.62.14,2.97-1.32,3.96-.37.25-.62.73-.83,1.16-1.95,3.85-4.46,7.19-8.2,9.32-1.25.71-2.56,1.29-3.89,1.83-2.01.82-4.1.04-5.23-1.85-.56-.93-.21-1.88.82-1.92,3.43-.13,5.99-2.07,8.43-4.25,1.38-1.23,2.71-2.53,4.04-3.82.86-.83,1.38-1.78,1.33-3.1-.06-1.56.42-2.17,1.9-2.61.99-.3,1.56-.85,1.9-1.86.29-.87.84-1.64,1.21-2.49,1.03-2.39.93-4.84.36-7.32-.25-1.06-.46-2.14-.67-3.21-.15-.76-.56-1-1.31-.92-2.54.26-5.1.43-7.64.69-1.23.13-2.44.42-3.66.61-.39.06-.8,0-1.2,0,.02-.49-.1-1.05.08-1.47.77-1.77,1.68-3.48,2.46-5.25,2.68-6.05,6.35-11.48,9.82-17.05,4.4-7.06,8.68-14.19,12.65-21.54,2.37-4.39,5.04-8.61,7.56-12.92.38-.64.85-.83,1.57-.8.83.03,1.67-.16,2.5-.26,2.09-.25,4.19-.5,6.28-.75,2.93-.35,5.87-.7,8.8-1.04,1.73-.2,3.46-.38,5.19-.58,3.09-.35,6.18-.71,9.27-1.05,3.3-.37,6.6-.74,9.91-1.12,2.88-.33,5.76-.69,8.64-1.01.78-.09,1.58-.13,2.37-.07.33.03.85.35.88.59.04.34-.21.93-.49,1.06-.66.3-1.4.48-2.12.56-4.01.46-8.02.88-12.04,1.29-3.96.41-7.93.76-11.89,1.17-2.88.3-5.76.65-8.65.97-2.67.3-5.35.57-8.02.88-2.38.28-4.76.6-7.14.92-.99.13-1.98.26-2.97.42-.71.12-1.21.48-1.54,1.22-2.51,5.55-5.97,10.51-9.03,15.73-3.62,6.18-7.37,12.27-11.04,18.42-2.67,4.47-5.29,8.97-7.91,13.47-.25.44-.76.87-.32,1.71.43-.66.82-1.19,1.15-1.75,2.67-4.56,5.29-9.16,8-13.7,4.19-7,8.46-13.96,12.67-20.95,2.42-4.02,4.83-8.04,7.2-12.09.66-1.13,1.53-1.53,2.79-1.62,4.05-.27,8.09-.66,12.14-1.03,2.99-.27,5.99-.56,8.98-.88,2.73-.29,5.44-.65,8.17-.93,2.44-.24,4.89-.37,7.33-.63,2.54-.27,5.07-.65,7.61-.98,2.6-.34,5.2-.69,7.9-.85-.72.96-1.45,1.92-2.17,2.88-3.11,4.15-6.21,8.31-9.31,12.47-1.29,1.73-1.28,1.73.26,3.24,2.21,2.15,4.43,4.31,6.62,6.48.51.51.92,1.13,1.38,1.7.54.68.75,1.46.75,2.36,0,.5.22,1.04.47,1.48.96,1.64,1.97,3.24,2.97,4.85.16.25.29.54.49.74,1.18,1.19,1.09,2.54.6,4.01-.29.86-.41,1.77-.66,2.88m-30.47,25.64c.22.3.38.5.52.72.99,1.55,1.99,3.1,2.95,4.67.56.91,1.25,1.63,2.24,1.98,2.2.78,4.46,1.28,6.79,1.46,1.16.09,2.32.13,3.47.31,3.88.61,7.76,1.24,11.71.73,1.62-.21,3.23-.38,4.67-1.34,1.42-.95,1.9-2.17,1.36-3.84-.78-2.42-1.08-4.81-.14-7.3.38-1,.34-2.18.43-3.28.02-.27-.18-.56-.24-.85-.2-.86-.46-1.72-.57-2.6-.09-.75-.02-1.52-.02-2.26-1.01-.29-1.24-1.12-.63-1.87.43-.52.88-1.03,1.23-1.6.57-.95.95-2.23-.46-3.12-.58-.37-1.08-.88-1.62-1.32-2.88-2.34-3.55-4.83-2.21-8.39.33-.89.37-1.57-.18-2.48-1.91-3.18-3.66-6.46-5.47-9.7-.55-.99-1.29-1.14-2.01-.29-.78.91-1.72,1.24-2.87,1.3-1.71.09-3.41.27-5.11.52-2.64.4-5.01,1.64-7.44,2.71-1.13.5-2.02,1.13-2.4,2.4,0,.02-.08.02-.13.04.04-.07.07-.14.11-.21-.24-.14-.62-.47-.71-.4-1.22,1.01-2.74,1.79-2.94,3.66-.14,1.31-.54,2.49-1.2,3.61-.44.73-.6,1.54-.26,2.37.09.03.17.05.26.08.23-.72.45-1.44.7-2.22.98.64.62-.57,1.06-.81.37.63.62.36.85-.14.31-.64.62-1.28.97-1.99.28.7-.59,1.53.51,1.9-.09.29-.14.59-.28.85-.66,1.31-1.39,2.58-2.01,3.91-.75,1.61-1.65,3.2-1.25,5.13.05.23-.02.5-.09.73-.55,1.77-.22,3.4.65,4.97.3.55.54,1.14.9,1.91-.51-.24-.8-.38-1.17-.55v1.3c-.88-.09-1.52-.51-1.93-1.21-.4-.67-.7-1.41-1.07-2.1-.15-.27-.36-.5-.55-.75-.08.03-.16.06-.24.1-.12.73-.24,1.46-.39,2.4-.16-.33-.24-.44-.27-.56-.24-.82-.74-1.17-1.6-1.11-.45.03-.93-.15-1.37-.33-.81-.32-1.6-.7-2.4-1.06-2.72-1.22-4.67.79-5.16,2.81-.32,1.33-.09,2.57.24,3.79.72,2.71,2.3,4.81,4.6,6.25,1.87,1.17,3.85,2.15,5.8,3.18,1.29.69,2.09.51,3.08-.63.4-.46.79-.93,1.25-1.47m14.95,35.02c.08-.04.16-.09.23-.14.18.28.4.53.53.83.95,2.23,1.85,4.47,2.83,6.69.19.43.64.73.97,1.09.29-.36.7-.67.84-1.09,1.14-3.34,2.08-6.73,2.12-10.31.03-2.71.18-5.42-.41-8.1-.23-1.03-.43-1.27-1.39-1.33-1.11-.07-1.13-.05-1.44,1.1-.05.18-.09.37-.15.55-.91,2.68-1.82,5.36-2.75,8.04-.51,1.47-1.8,1.8-3.06,2.16-.88.25-1.17-.56-1.7-.96-.13-.1-.25-.21-.38-.3-4.22-3.1-8.44-6.2-12.67-9.3-1.4-1.02-2.81-2.02-4.21-3.02.05-.08.09-.16.14-.24,1.01.55,2.07,1.02,3.03,1.66,2.97,1.99,5.95,3.97,8.84,6.09,1.89,1.39,3.59,3.04,5.41,4.53,1.69,1.39,2.31,1.27,3.6-.55.08-.11.15-.23.22-.34,1.62-2.56,2.2-5.55,3.16-8.38.33-.98.68-1.95,1.07-2.9.91-2.19,1.72-4.92-.89-7.01-.29-.23-.49-.6-.79-.8-.32-.21-.71-.32-1.09-.39-.12-.02-.41.21-.42.34-.06.72-.45.76-1,.65-.57-.11-1.14-.17-1.71-.23-.34-.04-.74.07-1.03-.07-1.32-.63-2.61-1.31-3.9-2-3.02-1.62-5.47-3.88-7.22-6.94-.42-.73-.91-1.41-1.39-2.1-.33-.49-.63-.59-.85.1-.17.54-.37,1.08-.57,1.62-.51,1.35-.71,1.42-1.97.72-1.61-.89-3.2-1.8-4.82-2.66-.29-.16-.67-.16-1-.23.06.36.08.73.19,1.07.26.74.7,1.43.84,2.19.22,1.2.23,2.43.38,3.65.04.33.27.63.48,1.12-.1.34-.25.87-.44,1.52.33-.05.52-.08.59-.09-.52,2-1.06,4-1.54,6.01-.2.85-.69,1.82.51,2.47-.67,0-1.23-.1-1.8-.11-1.27-.02-1.74.68-1.25,1.91.9,2.28,1.76,4.58,2.77,6.81.85,1.88,1.71,3.8,2.88,5.47,2.56,3.65,5.31,7.16,8,10.71.39.51.87.96,1.37,1.34.59.45,1.2.36,1.66-.28.44-.61.89-1.23,1.3-1.86,1.71-2.59,3.41-5.2,5.13-7.79.12-.18.38-.26.73-.49-.13.66-.26,1.05-.27,1.44,0,.16.32.49.37.46.69-.32,1.37-.67,2.03-1.06.1-.06.09-.4.07-.6-.03-.23-.13-.45-.2-.67m1.38,3.81c.11-1.23-.21-1.52-1.33-1.17-.98.31-2.02.5-2.92.98-.87.46-1.6,1.2-2.36,1.85-.12.11-.18.42-.13.6.22.86.46,1.72.73,2.57.29.93.8,1.37,1.71,1.2,1.23-.23,2.43-.63,3.62-1.04.67-.23.97-.79.9-1.55-.09-1.14-.15-2.29-.22-3.43M30.78,90.79c.64-.34,1.25-.66,1.84-1,.08-.04.13-.18.14-.29.08-.74.62-1.08,1.14-1.48,2.03-1.51,4.05-3.05,6.06-4.6.2-.15.29-.46.43-.69-.28.03-.63-.03-.83.12-2.23,1.66-4.45,3.32-6.63,5.04-.82.64-1.53,1.42-2.27,2.17-.13.13-.16.37-.18.57,0,.04.2.12.29.17"/></g></g></svg>