<svg xmlns="http://www.w3.org/2000/svg" width="800" height="804" viewBox="0 0 800 804" version="1.1"><path d="M 175.923 93.282 C 171.599 96.622, 167.789 100.121, 168.124 100.446 C 168.331 100.646, 170.750 98.837, 173.500 96.425 C 178.109 92.384, 179.615 90.430, 175.923 93.282 M 147.580 118.250 C 144.122 121.688, 139.567 126.525, 137.458 129 C 135.349 131.475, 138.433 128.783, 144.312 123.018 C 150.190 117.253, 155 112.415, 155 112.268 C 155 111.238, 153.063 112.799, 147.580 118.250 M 339.500 208.663 C 320.798 211.299, 305.168 214.304, 301.250 216.017 C 296.394 218.139, 294.403 218.901, 292 219.555 C 288.487 220.511, 270.570 229.255, 270.167 230.211 C 269.983 230.645, 269.182 231, 268.385 231 C 267.589 231, 266.694 231.634, 266.396 232.410 C 266.099 233.185, 264.763 234.094, 263.428 234.429 C 262.092 234.764, 261 235.480, 261 236.019 C 261 236.559, 260.564 237, 260.030 237 C 258.882 237, 248.975 245.866, 244 251.346 C 242.075 253.466, 238.588 257.207, 236.250 259.659 C 233.913 262.111, 232 264.541, 232 265.059 C 232 265.576, 231.539 266, 230.975 266 C 230.412 266, 229.513 267.012, 228.978 268.250 C 227.801 270.972, 225.939 273.936, 224.250 275.779 C 223.563 276.529, 223 277.748, 223 278.488 C 223 279.228, 222.627 279.983, 222.170 280.167 C 221.211 280.552, 216.112 290.205, 213.014 297.500 C 211.846 300.250, 210.504 303.400, 210.030 304.500 C 200.712 326.157, 198.563 367.972, 205.327 396 C 207.634 405.560, 208.791 406.852, 211.367 402.750 C 212.587 400.806, 212.572 399.070, 211.260 390 C 209.407 377.200, 209.154 340.612, 210.849 330.500 C 212.427 321.086, 216.152 308.282, 219.622 300.349 C 220.380 298.616, 221 296.741, 221 296.182 C 221 295.624, 221.338 295.017, 221.750 294.833 C 222.162 294.650, 223.581 292.250, 224.902 289.500 C 227.928 283.202, 235.167 272, 236.212 272 C 236.645 272, 237 271.401, 237 270.670 C 237 267.068, 263.331 243.562, 271.500 239.870 C 272.600 239.373, 275.483 237.849, 277.907 236.483 C 280.331 235.117, 283.089 234, 284.035 234 C 284.981 234, 286.315 233.325, 287 232.500 C 287.685 231.675, 289 231, 289.922 231 C 290.845 231, 292.028 230.619, 292.550 230.154 C 293.073 229.688, 297.550 228.312, 302.500 227.096 C 307.450 225.880, 314.035 224.248, 317.133 223.471 C 329.135 220.458, 352.276 220.696, 363.500 223.947 C 365.150 224.425, 369.200 225.580, 372.500 226.514 C 375.800 227.448, 379.625 228.725, 381 229.351 C 383.291 230.394, 383.055 230.515, 378.169 230.799 C 375.237 230.970, 372.295 230.660, 371.632 230.110 C 369.904 228.675, 353.811 226.538, 345 226.573 C 336.045 226.609, 318.208 228.554, 314.875 229.858 C 313.569 230.369, 309.800 231.580, 306.500 232.548 C 295.895 235.660, 291.567 237.153, 288.500 238.757 C 284.517 240.841, 278 245.956, 278 246.998 C 278 248.019, 287.803 244.447, 301.651 238.380 C 303.384 237.621, 305.956 237, 307.367 237 C 308.778 237, 311.410 236.384, 313.216 235.631 C 320.231 232.705, 323.778 231.853, 331.274 231.293 C 337.971 230.791, 338.967 230.922, 338.464 232.232 C 338.104 233.170, 336.095 233.955, 333.223 234.278 C 330.661 234.567, 328.401 235.298, 328.199 235.902 C 327.998 236.506, 326.737 237, 325.397 237 C 324.057 237, 321.057 238.223, 318.730 239.717 C 316.404 241.211, 312.969 243.274, 311.098 244.300 C 296.444 252.340, 296.551 255.043, 311.271 248.677 C 322.022 244.028, 322.917 243.952, 322.212 247.750 C 321.932 249.262, 321.207 250.831, 320.601 251.235 C 319.995 251.639, 320.738 251.976, 322.250 251.985 C 325.401 252.002, 325.991 254.323, 323.250 255.920 C 321.970 256.666, 324.016 256.947, 330.872 256.970 C 339.088 256.996, 340.091 257.185, 339 258.500 C 338.315 259.325, 337.045 260, 336.178 260 C 335.131 260, 334.935 260.335, 335.595 260.995 C 336.142 261.542, 342.420 262.443, 349.545 262.997 C 368.346 264.458, 369.712 264.967, 363.960 268.364 C 360.021 270.692, 353 278.006, 353 279.783 C 353 280.818, 353.843 280.642, 356.368 279.082 C 358.220 277.937, 360.978 277, 362.497 277 C 364.173 277, 366.736 275.723, 369.020 273.750 C 376.274 267.484, 378.176 266, 378.955 266 C 379.387 266, 383.985 263.188, 389.173 259.750 C 403.852 250.024, 407.110 248, 408.090 248 C 408.590 248, 409 247.594, 409 247.098 C 409 246.602, 410.238 245.706, 411.750 245.107 C 414.287 244.103, 426.912 237.494, 429.714 235.703 C 430.609 235.130, 430.412 234.412, 428.964 232.964 C 427.884 231.884, 426.550 231, 426 231 C 425.450 231, 425 230.580, 425 230.067 C 425 229.554, 423.988 228.819, 422.750 228.433 C 421.512 228.046, 420.275 227.442, 420 227.090 C 417.948 224.462, 394.880 215.220, 384 212.667 C 369.079 209.167, 348.843 207.346, 339.500 208.663 M 464.750 228.689 C 463.788 228.941, 463 229.564, 463 230.073 C 463 230.583, 461.965 231, 460.700 231 C 459.435 231, 457.972 231.408, 457.450 231.907 C 456.928 232.406, 453.575 234.023, 450 235.500 C 440.795 239.304, 420.564 249.284, 420.167 250.217 C 419.983 250.648, 419.445 251, 418.970 251 C 418.184 251, 409.619 255.974, 403.120 260.205 C 401.679 261.143, 399.078 262.638, 397.341 263.526 C 395.603 264.415, 393.396 266.010, 392.436 267.071 C 391.476 268.132, 390.288 269, 389.797 269 C 389.105 269, 384 273.785, 384 274.433 C 384 274.511, 385.387 274.680, 387.083 274.809 C 389.956 275.028, 393.586 273.181, 404.858 265.761 C 406.311 264.805, 408.175 263.702, 409 263.311 C 409.825 262.921, 410.950 262.219, 411.500 261.753 C 414.106 259.544, 453.066 240, 454.864 240 C 455.400 240, 457.224 239.325, 458.919 238.500 C 460.614 237.675, 463.357 236.342, 465.016 235.537 C 466.674 234.733, 468.699 234.331, 469.516 234.644 C 471.272 235.318, 471.510 232.821, 469.965 229.934 C 468.936 228.012, 468.103 227.813, 464.750 228.689 M 461 248.656 C 455.629 250.439, 443.443 255.628, 443.167 256.250 C 442.983 256.663, 442.245 257, 441.525 257 C 439.429 257, 422.027 265.851, 415.761 270.105 C 412.605 272.247, 409.637 274, 409.166 274 C 408.695 274, 407.552 274.838, 406.626 275.861 C 404.993 277.666, 405.087 277.684, 409.721 276.451 C 414.844 275.088, 419.839 273.024, 432.500 267.040 C 436.900 264.960, 442.525 262.559, 445 261.704 C 449.850 260.028, 458 258.522, 458 259.302 C 458 259.565, 453.613 261.959, 448.250 264.622 C 442.887 267.285, 438.350 269.810, 438.167 270.232 C 437.983 270.654, 437.472 271, 437.030 271 C 435.818 271, 424.908 278.242, 425.392 278.725 C 425.623 278.957, 427.517 278.675, 429.600 278.100 C 434.621 276.714, 434.857 277.249, 430.256 279.589 C 428.190 280.640, 426.350 281.837, 426.167 282.250 C 425.983 282.663, 425.196 283, 424.417 283 C 423.637 283, 423 283.450, 423 284 C 423 284.550, 423.702 285, 424.559 285 C 425.416 285, 425.870 285.402, 425.566 285.893 C 425.243 286.415, 426.568 286.425, 428.757 285.917 C 434.200 284.653, 434.549 284.780, 431.727 287 C 430.329 288.100, 428.748 289, 428.215 289 C 427.681 289, 426.685 289.675, 426 290.500 C 424.967 291.745, 425.083 292, 426.686 292 C 427.749 292, 429.491 291.339, 430.559 290.532 C 431.626 289.724, 433.545 289.049, 434.821 289.032 C 436.739 289.006, 436.913 289.227, 435.821 290.306 C 435.095 291.024, 432.933 292.487, 431.018 293.556 C 429.103 294.625, 426.934 296.063, 426.197 296.750 C 425.460 297.438, 424.439 298, 423.929 298 C 423.418 298, 423 298.450, 423 299 C 423 300.859, 430.626 299.492, 439.500 296.044 C 444.632 294.049, 451.046 292.730, 456.883 292.469 C 460.393 292.312, 464.893 291.526, 466.883 290.721 C 473.002 288.247, 480.399 285.992, 482.500 285.960 C 483.600 285.943, 485.509 285.369, 486.741 284.684 L 488.983 283.439 486.626 279.969 C 485.330 278.061, 483.392 274.862, 482.320 272.859 C 481.247 270.857, 478.547 267.032, 476.319 264.359 C 474.092 261.687, 471.983 258.600, 471.633 257.500 C 470.947 255.344, 464.318 247.949, 463.187 248.079 C 462.809 248.122, 461.825 248.382, 461 248.656 M 314.500 257 C 312.783 257.738, 312.924 257.867, 315.500 257.914 C 317.150 257.945, 319.175 257.533, 320 257 C 321.182 256.236, 320.970 256.042, 319 256.086 C 317.625 256.116, 315.600 256.527, 314.500 257 M 504 287.624 C 499.646 289.042, 494.517 290.538, 483 293.747 C 479.975 294.590, 476.600 295.654, 475.500 296.111 C 474.400 296.568, 470.575 297.887, 467 299.042 C 463.425 300.198, 459.600 301.551, 458.500 302.049 C 457.400 302.547, 454.250 303.684, 451.500 304.577 C 448.750 305.469, 445.150 306.789, 443.500 307.511 C 441.850 308.233, 437.781 309.730, 434.458 310.838 C 428.866 312.703, 425.624 313.925, 420.500 316.097 C 419.400 316.563, 416.025 317.887, 413 319.038 C 409.975 320.189, 405.025 322.276, 402 323.675 C 398.975 325.074, 395.150 326.813, 393.500 327.538 C 391.850 328.263, 387.003 330.464, 382.728 332.428 C 378.454 334.393, 374.516 336, 373.978 336 C 373.440 336, 373 336.401, 373 336.892 C 373 337.382, 371.875 338.066, 370.500 338.411 C 367.873 339.070, 366.984 342, 369.411 342 C 371.162 342, 382.317 337.841, 383 336.934 C 383.275 336.568, 384.621 335.919, 385.991 335.491 C 387.361 335.063, 391.186 333.495, 394.491 332.007 C 397.796 330.520, 402.075 328.714, 404 327.995 C 405.925 327.276, 409.975 325.581, 413 324.228 C 418.499 321.769, 432.727 316.350, 436.500 315.279 C 437.600 314.967, 438.950 314.373, 439.500 313.960 C 440.050 313.546, 442.075 312.750, 444 312.190 C 445.925 311.630, 453.350 309.083, 460.500 306.530 C 481.543 299.016, 484.198 298.214, 490.500 297.466 C 493.800 297.074, 496.950 296.420, 497.500 296.013 C 498.050 295.606, 501.049 294.987, 504.165 294.638 C 512.275 293.728, 513 293.298, 513 289.393 C 513 285.452, 511.544 285.166, 504 287.624 M 502.827 303.674 C 499.113 304.657, 498.238 312.014, 500.173 326 C 501.180 333.273, 501.885 335.222, 505.060 339.500 C 507.101 342.250, 509.108 345.625, 509.520 347 C 509.932 348.375, 510.574 349.725, 510.946 350 C 511.318 350.275, 512.060 352.075, 512.594 354 C 513.483 357.208, 513.912 357.525, 517.743 357.806 L 521.921 358.111 518.521 350.753 C 514.159 341.310, 510.848 326.260, 510.272 313.250 L 509.818 303 507.159 303.116 C 505.697 303.180, 503.747 303.431, 502.827 303.674 M 481.500 310.741 C 464.132 315.582, 454.725 318.542, 451.891 320.059 C 450.248 320.938, 450.285 321.354, 452.487 326.748 C 453.778 329.912, 455.512 333.793, 456.338 335.374 C 458.432 339.378, 457.494 341, 453.084 341 C 451.048 341, 448.509 341.661, 447.441 342.468 C 446.374 343.276, 444.764 343.951, 443.864 343.968 C 442.965 343.986, 440.940 344.672, 439.364 345.494 C 437.789 346.315, 435.825 347.005, 435 347.026 C 434.175 347.047, 432.626 347.724, 431.559 348.532 C 430.491 349.339, 428.129 350, 426.309 350 C 424.489 350, 423 350.450, 423 351 C 423 351.550, 421.988 352.003, 420.750 352.006 C 419.512 352.010, 417.375 352.589, 416 353.295 C 414.625 354, 411.380 355.378, 408.790 356.356 C 402.865 358.594, 396.178 361.909, 397.500 361.954 C 398.050 361.973, 399.797 361.311, 401.382 360.484 C 402.968 359.658, 406.118 358.690, 408.382 358.335 C 410.647 357.979, 414.433 356.865, 416.797 355.859 C 419.160 354.854, 421.410 354.125, 421.797 354.240 C 422.893 354.566, 432.388 351.806, 433.450 350.853 C 433.973 350.384, 435.181 350, 436.135 350 C 437.089 350, 439.137 349.470, 440.685 348.821 C 442.233 348.173, 446.425 347.032, 450 346.286 C 455.921 345.051, 460.924 344.335, 477 342.425 C 480.025 342.065, 483.625 341.634, 485 341.467 C 486.375 341.299, 488.647 341.126, 490.049 341.081 C 492.392 341.007, 492.565 340.696, 492.181 337.250 C 491.951 335.188, 491.403 333.049, 490.964 332.497 C 490.524 331.945, 489.670 327.053, 489.065 321.626 C 488.459 316.199, 487.635 311.216, 487.232 310.553 C 486.666 309.620, 485.367 309.663, 481.500 310.741 M 305.500 313.673 C 287.270 319.322, 275.884 331.112, 271.549 348.831 C 270.697 352.313, 270.009 356.813, 270.019 358.831 C 270.048 364.291, 272.422 372.458, 274.074 372.776 C 275.258 373.004, 275.452 371.624, 275.156 365.094 C 274.798 357.222, 275.989 351.381, 279.588 343.349 C 280.365 341.616, 281 339.703, 281 339.099 C 281 338.494, 281.337 337.988, 281.750 337.973 C 282.163 337.958, 283.559 336.228, 284.853 334.128 C 286.148 332.027, 288.398 329.604, 289.853 328.741 C 291.309 327.879, 293.850 326.001, 295.500 324.568 C 299.401 321.180, 310.139 318, 317.676 318 C 333.145 318, 348.407 327.580, 355.620 341.817 C 358.393 347.288, 358.500 348.031, 358.500 361.755 C 358.500 369.595, 358.671 375.445, 358.880 374.755 C 359.090 374.065, 359.990 372.664, 360.880 371.642 C 362.183 370.148, 362.500 367.399, 362.500 357.609 C 362.500 343.690, 361.454 340.259, 354.384 331 C 349.051 324.016, 345.699 321.163, 338.925 317.837 C 326.954 311.962, 315.591 310.546, 305.500 313.673 M 306.598 326.719 C 303.798 327.435, 295 333.023, 295 334.086 C 295 335.499, 299.289 335.170, 304.124 333.385 C 306.534 332.495, 311.893 331.712, 316.050 331.643 C 324.712 331.497, 329.442 333.163, 337.617 339.237 C 340.844 341.635, 343.337 342.808, 344.367 342.413 C 345.265 342.068, 346 341.630, 346 341.440 C 346 340.247, 343.532 336, 342.839 336 C 342.378 336, 341.185 335.185, 340.189 334.189 C 336.998 330.998, 333.614 329, 331.400 329 C 330.215 329, 328.685 328.325, 328 327.500 C 327.045 326.350, 324.627 326.027, 317.628 326.116 C 312.607 326.180, 307.644 326.451, 306.598 326.719 M 60.691 348.868 C 60.991 356.221, 61.594 363.421, 62.032 364.868 L 62.828 367.500 62.832 365 C 62.835 363.625, 62.231 356.425, 61.491 349 L 60.146 335.500 60.691 348.868 M 313.492 345.012 C 313.148 345.569, 314.691 347.831, 316.921 350.039 C 319.151 352.246, 321.254 355.166, 321.596 356.526 C 322.329 359.447, 322.046 359.378, 325.636 357.506 C 327.211 356.685, 329.261 356.010, 330.191 356.006 C 332.769 355.997, 333.018 354.750, 331.199 350.960 C 328.575 345.490, 326.242 344.071, 319.809 344.033 C 316.679 344.015, 313.836 344.456, 313.492 345.012 M 475 347.027 C 468.675 347.318, 463.009 347.863, 462.408 348.239 C 461.807 348.615, 458.882 349.364, 455.908 349.904 C 452.934 350.444, 448.250 351.550, 445.500 352.362 C 442.750 353.174, 436.450 354.994, 431.500 356.407 C 416.658 360.644, 405.521 364.366, 405.167 365.208 C 404.983 365.643, 404.121 366, 403.250 366 C 402.379 366, 401.949 366.282, 402.293 366.626 C 402.968 367.301, 418.172 364.030, 419 363.032 C 419.275 362.700, 421.975 361.870, 425 361.187 C 433.555 359.255, 438.239 358.229, 441.500 357.572 C 443.150 357.239, 447.425 356.379, 451 355.660 C 454.575 354.941, 458.175 354.085, 459 353.759 C 462.042 352.555, 478.841 350.673, 490.250 350.259 C 499.518 349.923, 502 349.533, 502 348.416 C 502 347.637, 500.988 346.920, 499.750 346.823 C 494.971 346.447, 486.040 346.521, 475 347.027 M 310.435 348.104 C 309.266 349.997, 308.594 362.369, 309.698 361.687 C 310.246 361.348, 311.972 362.405, 313.534 364.036 C 316.645 367.282, 322 368.209, 322 365.500 C 322 364.675, 321.161 364, 320.135 364 C 319.109 364, 317.084 363.067, 315.635 361.927 C 313.277 360.072, 313 359.180, 313 353.427 C 313 347.443, 312.056 345.483, 310.435 348.104 M 479.022 361.062 C 463.811 362.080, 460.761 363.127, 459.285 367.839 C 458.654 369.852, 457.845 372.259, 457.486 373.186 C 456.908 374.683, 457.461 374.808, 462.407 374.297 C 467.507 373.771, 479.781 375.501, 481 376.919 C 481.275 377.238, 483.102 378.313, 485.061 379.306 C 488.952 381.278, 494 385.312, 494 386.448 C 494 386.841, 492.375 389.146, 490.389 391.570 L 486.778 395.977 488.397 403.145 C 489.287 407.088, 490.526 410.929, 491.150 411.681 C 492.965 413.868, 491.577 414.226, 485.090 413.244 C 481.746 412.738, 478.783 412.551, 478.505 412.828 C 478.227 413.106, 478 416.683, 478 420.777 L 478 428.220 473.635 422.360 C 467.612 414.275, 464.670 411.750, 456 407.230 C 451.875 405.080, 446.700 402.081, 444.500 400.567 C 438.285 396.288, 431.323 393, 428.477 393 C 427.053 393, 423.167 394.350, 419.841 396 C 416.516 397.650, 413.166 399, 412.397 399 C 411.629 399, 411 399.420, 411 399.933 C 411 400.446, 410.100 401.151, 409 401.500 C 407.900 401.849, 407 402.567, 407 403.095 C 407 403.624, 409.250 408.756, 412 414.500 C 414.750 420.244, 417 425.542, 417 426.272 C 417 427.002, 417.386 428.027, 417.857 428.550 C 418.328 429.072, 419.730 432.875, 420.973 437 C 422.215 441.125, 423.629 445.534, 424.116 446.797 C 425.225 449.680, 425.239 451, 424.158 451 C 423.694 451, 421.626 447.400, 419.561 442.999 C 417.496 438.599, 415.400 434.747, 414.903 434.440 C 413.507 433.577, 413.836 442.389, 415.458 449.294 C 416.259 452.708, 417.621 459.325, 418.483 464 C 420.224 473.442, 421.738 477.684, 429.010 493.500 C 434.866 506.235, 444.026 515.723, 457.484 522.996 C 465.787 527.482, 473.094 527.057, 478.750 521.759 C 482.564 518.187, 481.103 510.640, 475.409 504.496 C 474.084 503.066, 473 501.335, 473 500.648 C 473 498.675, 475.188 497, 477.766 497 C 479.067 497, 481.020 496.524, 482.106 495.943 C 484.042 494.907, 484.035 494.848, 481.791 492.967 L 479.500 491.049 484.230 491.658 C 488.128 492.159, 489.076 491.965, 489.617 490.556 C 491.012 486.919, 487.735 485.637, 476.866 485.566 C 469.650 485.519, 466.549 485.135, 466.252 484.250 C 465.970 483.408, 466.979 483, 469.345 483 C 471.277 483, 473.459 482.438, 474.194 481.750 C 477.146 478.990, 487.483 475, 491.684 475 C 493.733 475, 493.924 474.727, 493.035 473.066 C 491.644 470.466, 491.724 465.676, 493.183 464.217 C 494.956 462.444, 493.583 461.735, 488.579 461.835 C 484.835 461.910, 483.569 461.415, 481.040 458.886 C 477.622 455.468, 477.140 451.877, 479.494 447.364 L 480.988 444.500 480.994 448.193 C 481.003 453.852, 483.145 454.818, 494.381 454.231 L 503.718 453.742 504.378 456.371 C 504.741 457.817, 505.425 459, 505.897 459 C 507.446 459, 513.850 456.053, 514.465 455.056 C 515.045 454.117, 512.701 445.117, 511.055 441.967 C 510.615 441.124, 509.920 438.874, 509.512 436.967 C 509.103 435.060, 508.423 433.050, 508 432.500 C 507.577 431.950, 506.902 429.925, 506.500 428 C 506.098 426.075, 505.436 424.050, 505.029 423.500 C 504.622 422.950, 504.050 421.600, 503.758 420.500 C 503.466 419.400, 502.040 414.117, 500.589 408.759 C 498.341 400.454, 498.049 397.856, 498.609 391.140 C 499.131 384.876, 498.907 382.325, 497.517 378.684 C 496.473 375.950, 495.954 372.575, 496.229 370.303 C 496.872 364.997, 494.437 359.775, 491.500 360.162 C 490.950 360.235, 485.335 360.640, 479.022 361.062 M 388.500 364.522 C 385.750 365.846, 384.261 366.945, 385.191 366.964 C 386.121 366.984, 387.136 366.589, 387.446 366.087 C 387.757 365.585, 389.808 364.870, 392.005 364.499 C 394.202 364.128, 396 363.414, 396 362.912 C 396 361.474, 393.894 361.926, 388.500 364.522 M 378 368 C 378 368.550, 376.988 369.052, 375.750 369.116 C 374.398 369.186, 374.119 369.399, 375.052 369.651 C 375.905 369.882, 378.155 369.397, 380.052 368.574 C 383.441 367.104, 383.453 367.078, 380.750 367.039 C 379.238 367.018, 378 367.450, 378 368 M 64.186 377.500 C 64.168 379.700, 64.767 383.300, 65.517 385.500 L 66.881 389.500 66.403 386 C 66.141 384.075, 65.542 380.475, 65.073 378 L 64.219 373.500 64.186 377.500 M 449 383.229 C 447.625 383.831, 444.700 385.114, 442.500 386.081 C 440.300 387.048, 437.600 388.208, 436.500 388.659 C 432.447 390.321, 448.309 390.179, 455 388.494 C 470.229 384.658, 470.244 384.652, 468.353 383.269 C 466.216 381.706, 452.544 381.678, 449 383.229 M 229.250 398.175 C 227.463 399.280, 226 400.593, 226 401.092 C 226 401.591, 225.363 402, 224.583 402 C 223.804 402, 223.017 402.337, 222.833 402.750 C 222.650 403.163, 219.575 405.969, 216 408.986 C 207.728 415.967, 207 416.673, 207 417.717 C 207 418.189, 209.250 420.973, 212 423.902 C 214.750 426.831, 217.003 429.739, 217.006 430.364 C 217.010 430.989, 217.673 432.766, 218.480 434.314 C 219.288 435.862, 220.244 439.360, 220.606 442.087 C 220.968 444.814, 221.654 447.286, 222.132 447.581 C 222.609 447.877, 223 450.289, 223 452.942 L 223 457.766 216.928 461.383 C 213.589 463.372, 210.439 465, 209.928 465 C 208.680 465, 208.740 468.721, 210 469.500 C 210.550 469.840, 211 470.991, 211 472.059 C 211 474.085, 213.428 474.735, 214.502 472.997 C 215.193 471.879, 223.299 468, 224.945 468 C 225.525 468, 226 467.599, 226 467.108 C 226 466.618, 227.162 465.925, 228.583 465.569 C 230.004 465.212, 232.920 463.813, 235.063 462.460 C 237.207 461.107, 239.332 460, 239.787 460 C 241.397 460, 257.400 446.067, 256.651 445.318 C 256.442 445.109, 254.972 445.582, 253.385 446.369 C 243.881 451.086, 237.128 454.046, 234.500 454.646 C 231.811 455.261, 231.639 455.163, 232.843 453.701 C 233.582 452.805, 236.721 450.388, 239.820 448.331 C 249.799 441.708, 250.613 440.622, 246.394 439.563 C 244.625 439.119, 242.457 439.617, 239.644 441.113 C 235.985 443.059, 230.446 443.779, 229.145 442.478 C 228.892 442.225, 229.993 440.733, 231.592 439.162 C 233.192 437.591, 234.629 435.739, 234.786 435.046 C 234.943 434.353, 235.730 433.127, 236.536 432.321 C 238.824 430.033, 238.258 429.601, 235.413 431.465 C 231.788 433.840, 231.227 432.621, 234.535 429.555 C 237.210 427.076, 236.948 426.114, 234.091 427.923 C 233.316 428.413, 232.050 428.573, 231.279 428.277 C 230.217 427.869, 230.560 427.008, 232.688 424.734 L 235.500 421.729 232.500 422.446 L 229.500 423.163 232.500 420.486 C 234.628 418.587, 234.865 418.127, 233.316 418.904 C 229.583 420.777, 228.766 420.204, 230.641 417.031 C 232.645 413.638, 231.901 412.046, 229.274 414.107 C 227.623 415.403, 227.604 415.361, 229 413.500 C 229.825 412.400, 230.950 411.169, 231.500 410.765 C 232.087 410.334, 231.881 410.026, 231 410.020 C 230.175 410.014, 227.495 411.339, 225.044 412.965 C 222.593 414.591, 220.361 415.695, 220.084 415.418 C 219.808 415.141, 222.370 412.277, 225.779 409.054 C 231.273 403.858, 234 399.838, 234 396.935 C 234 395.609, 232.962 395.880, 229.250 398.175 M 457.036 397.174 L 453.572 398.168 456.036 400.062 C 457.721 401.357, 460.159 401.963, 463.750 401.978 C 468.189 401.997, 469 401.716, 469 400.161 C 469 398.243, 465.145 395.934, 462.203 396.090 C 461.266 396.140, 458.941 396.628, 457.036 397.174 M 344.669 407.250 C 338.791 415.102, 337.468 421.675, 340.736 426.785 C 342.881 430.139, 344.470 431.496, 349.210 434.023 C 354.791 436.997, 356 436.664, 356 432.155 C 356 428.446, 353.749 425, 351.326 425 C 350.767 425, 349.565 424.177, 348.655 423.171 C 346.785 421.105, 346.397 412.589, 347.930 407.243 C 349.122 403.087, 347.783 403.090, 344.669 407.250 M 321.985 430.691 C 321.974 431.978, 321.739 432.137, 321.171 431.243 C 320.582 430.314, 319.802 430.643, 318.187 432.500 C 316.984 433.884, 316 435.227, 316 435.485 C 316 438.072, 304.669 457.773, 300.383 462.637 C 299.347 463.813, 297.150 466.488, 295.500 468.581 C 290.094 475.442, 279.649 485.261, 271.500 491.143 C 267.100 494.320, 262.814 497.499, 261.976 498.209 C 261.137 498.919, 258.662 500.400, 256.476 501.500 C 254.289 502.600, 252.266 503.809, 251.980 504.187 C 251.693 504.566, 250.343 505.360, 248.980 505.952 C 247.616 506.545, 245.150 507.913, 243.500 508.993 C 240.671 510.845, 215.817 523.264, 211.500 524.983 C 207.395 526.618, 200.785 528.118, 200.212 527.546 C 199.239 526.572, 202.088 524.395, 209.500 520.448 C 216.696 516.616, 220.897 514, 219.853 514 C 219.527 514, 216.443 514.900, 213 516 C 204.227 518.803, 203.474 518.700, 205.659 515 C 206.634 513.350, 207.784 512, 208.216 512 C 208.647 512, 209 511.325, 209 510.500 C 209 509.675, 209.450 509, 210 509 C 210.550 509, 211 508.325, 211 507.500 C 211 506.675, 211.395 506, 211.879 506 C 212.362 506, 213.317 504.650, 214 503 C 214.683 501.350, 215.528 500, 215.878 500 C 216.227 500, 217.084 498.171, 217.781 495.936 C 218.479 493.701, 219.890 489.989, 220.917 487.686 C 223.425 482.061, 224.063 480, 223.296 480 C 220.733 480, 214.912 484.056, 213.357 486.926 C 212.335 488.811, 211.050 490.855, 210.500 491.469 C 208.874 493.283, 206.984 496.374, 206.354 498.250 C 206.031 499.212, 205.434 500, 205.028 500 C 204.622 500, 203.010 502.025, 201.446 504.500 C 199.881 506.975, 198.241 509, 197.801 509 C 197.360 509, 197 509.482, 197 510.071 C 197 511.401, 194.477 514, 193.186 514 C 192.660 514, 191.519 515.086, 190.649 516.413 C 188.640 519.479, 170.601 538, 169.624 538 C 169.221 538, 167.453 539.348, 165.696 540.995 L 162.500 543.991 166 543.952 C 167.925 543.930, 171.300 543.508, 173.500 543.013 C 184.948 540.438, 187.581 539.713, 188.450 538.895 C 188.972 538.403, 190.322 538.002, 191.450 538.005 C 193.499 538.010, 200.843 535.792, 206.500 533.459 C 208.150 532.779, 210.625 531.893, 212 531.490 C 215.580 530.442, 225.438 525.639, 225.833 524.750 C 226.017 524.337, 226.600 524, 227.130 524 C 228.796 524, 242.729 517.187, 249.607 513.008 C 253.236 510.804, 256.402 509, 256.644 509 C 256.886 509, 257.628 508.550, 258.292 508.001 C 260.777 505.944, 270.232 500, 271.017 500 C 271.466 500, 271.983 499.663, 272.167 499.250 C 272.350 498.837, 274.750 496.740, 277.500 494.588 C 283.750 489.698, 296.375 476.730, 299.736 471.750 C 301.127 469.688, 302.550 468, 302.897 468 C 303.244 468, 304.640 466.200, 306 464 C 307.360 461.800, 308.816 460, 309.236 460 C 309.656 460, 310 459.503, 310 458.895 C 310 458.287, 311.350 455.790, 313 453.345 C 314.650 450.900, 316 448.472, 316 447.950 C 316 447.427, 316.367 447, 316.816 447 C 317.265 447, 318.570 444.637, 319.718 441.750 C 323.188 433.013, 323.955 430.090, 322.940 429.463 C 322.423 429.143, 321.993 429.696, 321.985 430.691 M 372 452.816 C 372 456.454, 374.128 466.018, 375.540 468.724 C 376.336 470.251, 376.990 472.063, 376.994 472.750 C 376.997 473.438, 377.675 474, 378.500 474 C 379.325 474, 380 474.675, 380 475.500 C 380 476.325, 380.401 477, 380.892 477 C 381.382 477, 382.066 478.125, 382.411 479.500 C 382.756 480.875, 383.480 482, 384.019 482 C 384.559 482, 385 482.516, 385 483.147 C 385 484.524, 390.916 491.863, 396.642 497.589 C 401.735 502.682, 416.243 512.338, 423.854 515.700 C 426.959 517.071, 430.999 518.864, 432.831 519.682 C 437.482 521.760, 437.826 520.736, 433.258 518.411 C 424.319 513.860, 410.660 504.070, 401.137 495.389 C 394.729 489.546, 386.513 478.663, 382.580 470.805 C 381.011 467.673, 379.157 464.891, 378.459 464.622 C 377.760 464.354, 376.887 462.760, 376.517 461.079 C 376.148 459.398, 375.431 457.766, 374.923 457.452 C 374.415 457.139, 374 455.559, 374 453.941 C 374 452.323, 373.550 451, 373 451 C 372.450 451, 372 451.817, 372 452.816 M 361.601 462 C 363.007 476.759, 371.095 492.289, 381.132 499.500 C 386.949 503.678, 388.417 503.557, 384.315 499.238 C 377.994 492.581, 374.257 487.881, 372.429 484.291 C 371.368 482.206, 370.236 480.275, 369.914 480 C 369.591 479.725, 368.837 478.150, 368.236 476.500 C 367.636 474.850, 366.170 471.025, 364.978 468 C 363.785 464.975, 362.420 461.150, 361.944 459.500 C 361.302 457.280, 361.213 457.930, 361.601 462 M 102.017 493.556 C 101.999 498.914, 98.873 509.498, 95.832 514.500 C 93.213 518.806, 93.389 521.316, 96.250 520.467 C 102.107 518.727, 116.251 509.027, 126.439 499.763 C 130.378 496.181, 127.062 498.154, 121 503 C 117.560 505.750, 114.374 508, 113.921 508 C 113.469 508, 111.435 504.962, 109.403 501.250 C 107.371 497.538, 104.882 493.150, 103.871 491.500 L 102.034 488.500 102.017 493.556 M 330.845 493.635 C 327.570 494.639, 325.361 496.166, 323.398 498.781 C 321.862 500.827, 320.352 502.725, 320.041 503 C 319.159 503.781, 310.898 520.895, 309.976 523.852 C 309.521 525.309, 308.171 528.975, 306.975 532 C 305.779 535.025, 304.560 538.625, 304.266 540 C 303.972 541.375, 303.401 542.950, 302.997 543.500 C 302.592 544.050, 301.256 547.875, 300.027 552 C 298.799 556.125, 297.165 561.428, 296.397 563.785 C 295.628 566.142, 295 568.984, 295 570.101 C 295 571.218, 294.565 572.944, 294.034 573.936 C 293.503 574.929, 292.631 578.162, 292.096 581.120 C 291.561 584.079, 290.393 589.875, 289.499 594 C 288.593 598.185, 287.785 607.025, 287.670 614 L 287.466 626.500 282.483 626.385 C 279.742 626.321, 268.916 625.330, 258.425 624.183 C 236.767 621.813, 230.639 622.184, 241.610 625.200 C 245.400 626.242, 251.425 627.472, 255 627.934 C 263.736 629.062, 266.759 629.930, 267.354 631.480 C 268.073 633.355, 256.024 632.770, 218 629.085 C 205.022 627.827, 186.695 627.697, 187.419 628.868 C 187.714 629.346, 190.665 630.043, 193.978 630.418 C 197.290 630.793, 200 631.446, 200 631.870 C 200 632.293, 204.122 633.189, 209.159 633.859 C 214.197 634.530, 219.034 635.497, 219.909 636.009 C 221.643 637.023, 221.533 637.033, 205.800 637.334 C 200.784 637.430, 196.611 637.988, 195.947 638.653 C 193.688 640.912, 196.141 654.215, 200.388 662.745 C 201.825 665.630, 203 668.641, 203 669.436 C 203 670.231, 203.424 671.144, 203.941 671.464 C 204.459 671.784, 205.921 674.173, 207.190 676.773 C 208.460 679.373, 209.769 681.725, 210.099 682 C 210.430 682.275, 211.282 683.625, 211.993 685 C 213.551 688.015, 226.182 707.293, 227.063 708 C 227.405 708.275, 229.299 710.812, 231.271 713.638 C 233.243 716.464, 236.948 720.964, 239.503 723.638 C 253.089 737.853, 261.539 746, 262.699 746 C 263.415 746, 264 746.374, 264 746.830 C 264 747.287, 266.010 749.105, 268.467 750.869 C 270.924 752.633, 273.524 754.622, 274.244 755.288 C 276.546 757.417, 281.890 761, 282.763 761 C 283.806 761, 289.080 755.257, 290.676 752.382 C 294.292 745.869, 295.184 730.534, 292.524 720.593 C 291.655 717.344, 289.118 710.896, 286.886 706.263 C 284.654 701.630, 283.032 697.635, 283.281 697.386 C 284.558 696.109, 310 719.599, 310 722.055 C 310 722.603, 311.328 722.365, 312.950 721.526 C 314.573 720.687, 317.446 720, 319.335 720 C 321.779 720, 323.210 719.351, 324.295 717.750 C 326.669 714.248, 331.038 709.861, 336.500 705.496 C 339.250 703.298, 341.650 701.163, 341.833 700.750 C 342.017 700.337, 342.656 700, 343.255 700 C 343.853 700, 345.168 699.253, 346.177 698.339 C 349.629 695.216, 348.972 697.636, 344.536 704.391 C 338.838 713.066, 336.695 720.373, 337.174 729.488 C 337.550 736.621, 341.006 746, 343.259 746 C 343.854 746, 347.313 743.188, 350.947 739.750 C 360.329 730.875, 369.117 723, 369.639 723 C 369.883 723, 371.026 722.122, 372.177 721.050 C 373.328 719.977, 375.672 718.390, 377.385 717.522 C 381.180 715.601, 384.328 713.699, 385 712.922 C 385.579 712.254, 402.013 703, 402.622 703 C 402.846 703, 407.185 701.044, 412.264 698.652 C 417.344 696.261, 423.300 693.612, 425.500 692.765 C 427.700 691.918, 431.300 690.538, 433.500 689.697 C 435.700 688.856, 440.326 687.343, 443.781 686.334 C 451.355 684.122, 451.494 683.786, 450.639 669.673 C 449.757 655.099, 447.197 641.165, 444.684 637.250 C 444.140 636.402, 440.985 636, 434.870 636 C 426.859 636, 426.024 635.833, 427.357 634.500 C 428.182 633.675, 429.988 633, 431.370 633 C 432.751 633, 434.160 632.550, 434.500 632 C 434.840 631.450, 436.180 631, 437.477 631 C 440.609 631, 443 630.028, 443 628.754 C 443 627.627, 439.066 627.922, 419.500 630.514 C 402.776 632.730, 392.275 633.444, 393.500 632.280 C 394.750 631.094, 402.353 628.379, 407 627.461 C 408.925 627.080, 410.950 626.430, 411.500 626.015 C 412.050 625.600, 414.172 624.960, 416.215 624.592 C 422.909 623.386, 421.915 621.692, 414.886 622.328 C 397.797 623.876, 370.313 627.543, 365.176 628.962 C 363.216 629.503, 361.423 629.756, 361.192 629.525 C 360.960 629.294, 361.723 627.139, 362.886 624.736 C 364.048 622.334, 365.014 619.723, 365.032 618.934 C 365.049 618.145, 365.724 616.626, 366.532 615.559 C 367.339 614.491, 368 612.595, 368 611.346 C 368 610.096, 368.966 606.695, 370.147 603.787 C 371.328 600.879, 372.881 595.800, 373.598 592.500 C 376.974 576.964, 377.923 573.526, 378.923 573.192 C 380.311 572.730, 380.332 570, 378.948 570 C 378.369 570, 377.432 568.668, 376.864 567.041 C 374.920 561.463, 369.731 561.953, 360.500 568.585 C 357.200 570.956, 351.936 575.493, 348.802 578.667 C 345.668 581.840, 342.780 584.113, 342.384 583.717 C 341.725 583.058, 342.890 579.770, 345.118 576 C 345.606 575.175, 346.454 573.375, 347.003 572 C 347.552 570.625, 348.475 568.679, 349.055 567.676 C 349.635 566.672, 350.828 560.873, 351.707 554.788 C 353.187 544.529, 353.180 542.953, 351.604 533.112 C 349.896 522.449, 347.357 513.348, 344.849 508.895 C 343.061 505.720, 336.844 500.002, 335.179 500.001 C 334.452 500, 333.226 499.369, 332.454 498.597 C 331.250 497.393, 331.272 497.110, 332.605 496.598 C 334.463 495.885, 339 496.887, 339 498.011 C 339 498.447, 340.290 499.254, 341.867 499.804 C 343.444 500.354, 346.221 502.873, 348.037 505.402 C 351.445 510.147, 353 511.114, 353 508.487 C 353 507.123, 351.758 505.563, 343.833 496.970 C 341.936 494.913, 336.532 491.679, 335.703 492.104 C 335.591 492.161, 333.405 492.850, 330.845 493.635 M 108 583.918 C 95.865 586.764, 85.589 595.916, 80.192 608.685 C 77.632 614.742, 77.127 621.970, 79.395 620.087 C 80.162 619.451, 81.363 619.058, 82.063 619.215 C 82.818 619.384, 83.734 617.872, 84.314 615.500 C 85.354 611.244, 90.141 603.101, 94.104 598.846 C 95.422 597.430, 99.200 594.799, 102.500 592.997 C 108.146 589.916, 109.119 589.716, 119 589.621 C 128.641 589.527, 129.931 589.746, 134.773 592.288 C 137.673 593.811, 141.988 596.971, 144.361 599.311 C 148.788 603.675, 154 612.712, 154 616.023 C 154 617.045, 154.450 618.160, 155 618.500 C 155.550 618.840, 156 620.479, 156 622.142 C 156 624.115, 156.434 625.023, 157.250 624.754 C 158.035 624.494, 158.608 621.940, 158.791 617.887 C 159.045 612.243, 158.683 610.686, 155.902 605.467 C 151.661 597.509, 144.860 590.821, 137.081 586.961 C 131.515 584.200, 129.469 583.750, 121.099 583.446 C 115.820 583.254, 109.925 583.467, 108 583.918 M 67.141 597.022 C 64.743 598.110, 62.268 599.002, 61.641 599.005 C 61.013 599.008, 59.192 600.057, 57.593 601.336 L 54.687 603.661 56.559 606.831 C 57.589 608.574, 58.811 610, 59.276 610 C 61.659 610, 69.996 603.204, 72.308 599.376 C 74.592 595.594, 74.717 595.003, 73.225 595.022 C 72.276 595.034, 69.538 595.934, 67.141 597.022 M 105.773 598.930 C 99.115 602.307, 95.678 605.772, 92.932 611.876 C 91.061 616.035, 91.050 616.316, 92.720 617.538 C 94.699 618.984, 96.731 618.331, 95.155 616.755 C 93.839 615.439, 99.395 607.901, 103.371 605.609 C 109.184 602.259, 128 602.617, 128 606.078 C 128 606.585, 128.541 607, 129.201 607 C 131.249 607, 139.057 616.036, 139.674 619.119 C 139.995 620.726, 140.650 622.284, 141.129 622.580 C 141.608 622.876, 142 624.126, 142 625.359 C 142 627.668, 143.680 630, 145.344 630 C 145.913 630, 146.021 626.800, 145.615 621.934 C 145.110 615.881, 144.326 612.892, 142.471 609.954 C 141.112 607.801, 140 605.591, 140 605.043 C 140 604.495, 138.762 603.259, 137.250 602.296 C 135.738 601.334, 134.275 600.288, 134 599.972 C 132.444 598.184, 123.604 596.002, 117.967 596.013 C 112.826 596.023, 110.326 596.621, 105.773 598.930 M 464.098 597.539 C 465.862 599.704, 472.527 613.414, 475.989 622 C 477.209 625.025, 478.572 628.400, 479.018 629.500 C 479.875 631.614, 481.319 636.923, 483.505 646 C 484.234 649.025, 485.796 655.100, 486.977 659.500 C 491.504 676.365, 497.962 716.810, 498.076 729 C 498.112 732.902, 498.366 733.909, 498.951 732.466 C 499.405 731.347, 500.106 720.505, 500.510 708.372 C 501.126 689.877, 500.987 685.197, 499.653 679.407 C 497.107 668.360, 496.109 660.595, 497.099 659.550 C 497.649 658.970, 498 659.430, 498 660.729 C 498 661.899, 498.675 663.532, 499.500 664.357 C 500.325 665.182, 501.014 666.677, 501.032 667.679 C 501.049 668.680, 501.724 670.374, 502.532 671.441 C 503.339 672.509, 504 674.196, 504 675.191 C 504 676.186, 504.417 677, 504.927 677 C 505.436 677, 506.042 677.563, 506.272 678.250 C 506.502 678.938, 506.487 678.150, 506.240 676.500 C 505.992 674.850, 505.387 673.072, 504.895 672.550 C 503.711 671.293, 503.741 666, 504.933 666 C 505.446 666, 506.181 667.013, 506.567 668.250 C 506.954 669.487, 507.551 670.725, 507.895 671 C 508.239 671.275, 509.861 674.194, 511.499 677.487 C 513.520 681.549, 514.592 682.881, 514.833 681.630 C 515.028 680.617, 514.695 679.295, 514.094 678.694 C 513.492 678.092, 512.997 676.452, 512.994 675.050 C 512.990 673.647, 512.315 671.211, 511.494 669.636 C 509.459 665.735, 509.463 663.309, 511.500 665 C 512.325 665.685, 513 666.871, 513 667.636 C 513 668.401, 513.407 669.809, 513.905 670.764 C 514.403 671.719, 516.169 675.425, 517.828 679 C 519.488 682.575, 521.813 687.525, 522.995 690 C 525.078 694.361, 525.124 694.392, 524.485 691 C 523.568 686.125, 520.373 675.546, 517.841 669 C 514.867 661.309, 505.756 642.569, 504.796 642.167 C 504.358 641.983, 504 641.403, 504 640.876 C 504 639.755, 499.845 633.653, 498.750 633.167 C 498.337 632.983, 498 632.373, 498 631.811 C 498 630.897, 496.671 629.046, 489.521 620.003 C 484.797 614.030, 470.426 600.581, 465.327 597.363 C 462.542 595.605, 462.524 595.607, 464.098 597.539 M 314.739 604.875 C 313.691 609.659, 313.820 634.753, 314.911 638.429 C 318.768 651.424, 321.192 657, 322.986 657 C 324.184 657, 339.316 633.292, 343.551 624.779 C 347.628 616.586, 347.565 613.670, 343.417 618.498 C 341.252 621.017, 340.076 621.464, 334.707 621.802 C 329.418 622.136, 328.076 621.859, 325.632 619.931 C 321.845 616.945, 316.256 608.111, 315.823 604.429 L 315.478 601.500 314.739 604.875 M 457.648 607.500 C 457.925 609.700, 458.535 612.625, 459.003 614 C 459.472 615.375, 460.155 618.750, 460.521 621.500 C 460.887 624.250, 461.523 626.950, 461.933 627.500 C 464.066 630.362, 471.986 680.087, 471.996 690.685 C 471.998 692.987, 472.482 696.137, 473.070 697.685 C 475.073 702.953, 476.268 697.618, 476.223 683.602 C 476.139 657.071, 474.794 646.460, 469.055 627.080 C 467.631 622.273, 459.959 607, 458.968 607 C 458.516 607, 457.921 606.212, 457.645 605.250 C 457.369 604.288, 457.370 605.300, 457.648 607.500 M 106.856 613.265 C 101.147 618.332, 98.574 625.246, 101 629 C 101.824 630.276, 101.972 630.233, 101.985 628.715 C 102.026 623.848, 109.952 616.039, 114.872 616.016 C 117.612 616.003, 118.032 616.257, 117.110 617.367 C 116.249 618.405, 116.326 619.025, 117.428 619.940 C 118.227 620.604, 118.637 621.782, 118.339 622.559 C 117.999 623.445, 118.766 624.341, 120.398 624.961 C 121.829 625.505, 123.007 626.299, 123.015 626.725 C 123.024 627.151, 123.439 628.146, 123.939 628.936 C 124.692 630.126, 125.117 630.147, 126.424 629.063 C 127.725 627.983, 128 627.988, 128 629.092 C 128 630.089, 128.414 630.015, 129.627 628.802 C 132.386 626.042, 130.652 618.769, 126.090 613.974 C 122.512 610.212, 121.994 610.001, 116.405 610.015 C 111.177 610.028, 110.082 610.401, 106.856 613.265 M 165.055 663.620 C 165.001 668.663, 168.145 680.545, 170.033 682.433 C 170.565 682.965, 171 684.174, 171 685.119 C 171 686.994, 172.328 689.864, 178.579 701.500 C 180.056 704.250, 182.218 707.693, 183.382 709.152 C 188.676 715.781, 190.564 718.361, 191.403 720.114 C 191.899 721.151, 192.813 722, 193.432 722 C 194.052 722, 195.220 722.955, 196.029 724.123 C 196.838 725.290, 198.063 726.833, 198.750 727.551 C 199.438 728.269, 200 729.154, 200 729.518 C 200 731.125, 228.845 760.488, 229.642 759.691 C 230.356 758.978, 228.369 755.734, 224.871 751.902 C 223.567 750.472, 220.250 746.478, 217.500 743.025 C 214.750 739.572, 211.713 735.903, 210.750 734.873 C 209.787 733.843, 209 732.788, 209 732.529 C 209 732.271, 206.300 728.469, 203 724.080 C 199.700 719.692, 197 715.822, 197 715.479 C 197 714.487, 194.240 712, 193.139 712 C 192.587 712, 191.849 711.100, 191.500 710 C 191.151 708.900, 190.446 708, 189.933 708 C 189.420 708, 189 707.475, 189 706.834 C 189 706.193, 187.038 702.480, 184.640 698.584 C 180.103 691.211, 170.581 672.151, 167.113 663.500 L 165.109 658.500 165.055 663.620 M 674.459 670.355 C 674.433 675.446, 673.749 680.461, 672.635 683.730 C 670.969 688.619, 671.108 693, 672.931 693 C 673.369 693, 676.601 690.346, 680.113 687.101 L 686.500 681.203 684.500 677.351 C 683.400 675.233, 682.150 673.050, 681.722 672.500 C 681.294 671.950, 679.494 669.410, 677.722 666.855 L 674.500 662.210 674.459 670.355 M 452.500 693.732 C 448.481 694.312, 439.291 697.437, 432.588 700.502 C 429.585 701.876, 426.800 703, 426.399 703 C 425.594 703, 402.668 714.322, 399.523 716.273 C 389.814 722.296, 383.281 726.597, 382.172 727.696 C 381.442 728.421, 379.867 729.533, 378.672 730.169 C 373.690 732.820, 356.786 748.064, 360.341 746.699 C 361.245 746.353, 362.003 746.718, 362.187 747.590 C 362.419 748.687, 363.356 748.285, 365.821 746.026 C 370.499 741.740, 378.126 736, 379.144 736 C 379.615 736, 380 736.450, 380 737 C 380 737.550, 379.619 738, 379.154 738 C 377.829 738, 366.998 748.988, 367.015 750.314 C 367.025 751.061, 367.303 751.130, 367.765 750.500 C 368.565 749.412, 370.022 748.546, 378.762 743.964 C 381.941 742.298, 385.905 739.660, 387.572 738.103 C 389.239 736.545, 392.861 733.522, 395.622 731.385 C 398.383 729.248, 403.085 725.540, 406.071 723.143 C 409.057 720.747, 412.704 717.837, 414.175 716.677 C 415.647 715.517, 416.590 714.145, 416.271 713.629 C 415.941 713.096, 416.237 713.028, 416.957 713.474 C 417.654 713.904, 418.511 713.834, 418.862 713.319 C 419.539 712.324, 434.685 703, 435.624 703 C 435.928 703, 439.093 701.650, 442.658 700 C 446.223 698.350, 449.463 697, 449.858 697 C 450.254 697, 452.342 696.100, 454.500 695 C 458.401 693.011, 458.234 692.905, 452.500 693.732 M 196.977 698.297 C 198.176 701.620, 211.798 722.353, 213.098 722.833 C 213.594 723.017, 214 723.574, 214 724.072 C 214 725.075, 216.082 727.771, 220.250 732.168 C 221.762 733.764, 223 735.262, 223 735.499 C 223 735.900, 240.506 753.235, 243.252 755.553 C 243.939 756.132, 248.100 759.021, 252.500 761.972 C 256.900 764.924, 260.725 767.633, 261 767.992 C 261.275 768.352, 262.175 768.956, 263 769.334 C 263.825 769.712, 265.850 770.893, 267.500 771.957 C 269.150 773.021, 272.525 774.919, 275 776.176 C 277.475 777.433, 280.850 779.410, 282.500 780.570 C 286.722 783.539, 293.112 786.661, 297.374 787.838 C 301.202 788.895, 302.542 787.624, 298.838 786.449 C 295.757 785.471, 278 773.892, 278 772.860 C 278 772.387, 277.438 771.988, 276.750 771.973 C 276.063 771.958, 273.925 770.599, 272 768.952 C 270.075 767.305, 264.954 763.213, 260.620 759.859 C 256.285 756.505, 251.561 752.802, 250.120 751.630 C 245.649 747.993, 222.975 725.024, 213 714.026 C 195.897 695.169, 195.821 695.095, 196.977 698.297 M 426 716.876 C 420.104 719.330, 413.382 724.840, 398.812 739.160 C 389.864 747.954, 387.894 750.610, 392.610 747.520 C 394.046 746.579, 396.280 746.012, 397.575 746.259 C 399.412 746.610, 401.379 745.314, 406.538 740.354 C 410.173 736.860, 413.591 734, 414.133 734 C 414.675 734, 414.836 733.544, 414.492 732.988 C 414.148 732.431, 415.724 730.068, 417.994 727.738 C 427.363 718.119, 428.349 717.018, 427.934 716.643 C 427.695 716.427, 426.825 716.532, 426 716.876 M 456.500 767.635 C 451 771.134, 445.600 774.455, 444.500 775.015 C 443.400 775.576, 440.250 777.389, 437.500 779.045 C 434.750 780.702, 431.375 782.519, 430 783.083 C 428.625 783.648, 424.575 785.483, 421 787.162 C 417.425 788.841, 411.575 791.555, 408 793.194 C 404.425 794.833, 400.719 796.585, 399.764 797.087 C 398.809 797.589, 397.234 798.007, 396.264 798.015 C 395.294 798.024, 393.825 798.500, 393 799.073 C 391.347 800.222, 399.764 799.650, 410.500 797.883 C 416.096 796.962, 427.082 792.441, 427.833 790.750 C 428.017 790.337, 428.635 790, 429.207 790 C 430.637 790, 444.466 781.534, 446.725 779.275 C 447.734 778.266, 450.683 775.915, 453.280 774.051 C 455.876 772.186, 458 770.287, 458 769.830 C 458 769.374, 458.387 769, 458.860 769 C 459.887 769, 467.403 762.047, 466.870 761.590 C 466.667 761.415, 462 764.135, 456.500 767.635" stroke="none" fill="#ededed" fill-rule="evenodd"/><path d="M 364.575 23.039 C 313.982 26.555, 262.200 40.900, 223.933 62.001 C 211.926 68.622, 183.248 87.494, 180.873 90.337 C 179.880 91.527, 179.052 92.222, 179.033 91.882 C 179.015 91.542, 177.389 92.784, 175.419 94.641 C 173.450 96.498, 171.456 97.782, 170.988 97.493 C 170.521 97.204, 169.813 97.494, 169.415 98.138 C 168.920 98.939, 169.135 99.041, 170.095 98.463 C 171.298 97.738, 171.300 97.863, 170.107 99.332 C 169.342 100.276, 168.504 100.837, 168.246 100.580 C 167.988 100.322, 166.662 101.437, 165.298 103.058 C 163.934 104.679, 162.509 105.815, 162.131 105.581 C 161.754 105.348, 159.259 107.586, 156.587 110.554 C 153.915 113.522, 151.271 115.667, 150.710 115.321 C 150.150 114.974, 149.967 115.137, 150.304 115.683 C 151.107 116.982, 143.631 124.274, 142.527 123.270 C 142.061 122.847, 141.960 122.994, 142.304 123.597 C 142.648 124.200, 141.489 126, 139.730 127.597 C 137.007 130.068, 136.827 130.128, 138.516 128 L 140.500 125.500 138.274 127.384 C 137.049 128.420, 136.257 129.606, 136.513 130.020 C 136.769 130.435, 136.236 131.387, 135.329 132.137 C 132.962 134.094, 114.583 156.150, 112.446 159.599 C 111.457 161.195, 108.250 166.212, 105.319 170.748 C 84.206 203.427, 70.432 238.497, 63.942 276.101 C 62.798 282.730, 61.843 289.582, 61.820 291.327 C 61.797 293.072, 61.155 298.775, 60.395 304 C 59.583 309.574, 59.077 320.319, 59.169 330 C 59.262 339.755, 59.566 344.252, 59.913 341 C 60.411 336.337, 60.686 337.783, 61.722 350.500 C 62.395 358.750, 62.693 366.625, 62.386 368 C 61.928 370.046, 62.039 370.228, 62.996 369 C 63.928 367.805, 64.059 368.266, 63.642 371.272 C 63.354 373.347, 63.498 374.810, 63.961 374.524 C 64.744 374.040, 66.577 384.302, 66.414 388.250 C 66.374 389.212, 66.714 390, 67.171 390 C 67.627 390, 68.001 391.238, 68.003 392.750 C 68.005 394.262, 69.556 401.350, 71.449 408.500 C 77.524 431.436, 86.365 455.659, 96.998 478.500 C 101.007 487.112, 101.169 487.834, 100.759 495.251 C 100.242 504.601, 101.106 504.677, 101.920 495.353 L 102.500 488.714 107.615 498.062 C 110.429 503.203, 113.167 507.556, 113.702 507.734 C 114.236 507.912, 117.498 505.800, 120.950 503.040 C 124.402 500.280, 127.626 498.269, 128.114 498.570 C 128.601 498.871, 129.016 498.529, 129.036 497.809 C 129.056 497.089, 144.110 483.988, 162.491 468.695 C 194.347 442.190, 195.865 440.774, 194.957 438.388 C 193.058 433.391, 189.118 416.259, 187.510 406 C 185.365 392.316, 184.265 367, 185.816 367 C 186.457 367, 186.668 367.750, 186.308 368.750 C 185.795 370.180, 186.121 370.102, 188.090 368.324 C 189.415 367.127, 191.738 365.890, 193.250 365.574 C 194.762 365.258, 197.125 364.766, 198.500 364.481 C 200.787 364.006, 201 363.511, 201 358.655 C 201 340.936, 205.131 316.220, 210.051 304.500 C 213.924 295.274, 215.544 291.712, 218.239 286.500 C 219.944 283.200, 221.714 280.350, 222.170 280.167 C 222.627 279.983, 223 279.228, 223 278.488 C 223 277.748, 223.563 276.529, 224.250 275.779 C 225.939 273.936, 227.801 270.972, 228.978 268.250 C 229.513 267.012, 230.412 266, 230.975 266 C 231.539 266, 232 265.576, 232 265.059 C 232 264.541, 233.912 262.111, 236.250 259.659 C 238.588 257.207, 242.075 253.466, 244 251.346 C 248.975 245.866, 258.882 237, 260.030 237 C 260.564 237, 261 236.559, 261 236.019 C 261 235.480, 262.092 234.764, 263.428 234.429 C 264.763 234.094, 266.099 233.185, 266.396 232.410 C 266.694 231.634, 267.589 231, 268.385 231 C 269.182 231, 269.983 230.645, 270.167 230.211 C 270.570 229.255, 288.487 220.511, 292 219.555 C 294.633 218.838, 296.879 217.989, 301 216.154 C 302.375 215.542, 306.875 214.318, 311 213.435 C 345.031 206.149, 370.741 207.119, 397.500 216.698 C 404.636 219.253, 419.095 225.930, 420 227.090 C 420.275 227.442, 421.512 228.046, 422.750 228.433 C 423.988 228.819, 425 229.554, 425 230.067 C 425 230.580, 425.450 231, 426 231 C 426.550 231, 427.884 231.884, 428.964 232.964 C 430.412 234.412, 430.609 235.130, 429.714 235.703 C 426.912 237.494, 414.287 244.103, 411.750 245.107 C 410.238 245.706, 409 246.602, 409 247.098 C 409 247.594, 408.590 248, 408.090 248 C 407.110 248, 403.852 250.024, 389.173 259.750 C 383.985 263.188, 379.387 266, 378.955 266 C 378.176 266, 376.274 267.484, 369.020 273.750 C 366.736 275.723, 364.173 277, 362.497 277 C 360.978 277, 358.220 277.937, 356.368 279.082 C 353.843 280.642, 353 280.818, 353 279.783 C 353 278.006, 360.021 270.692, 363.960 268.364 C 369.712 264.967, 368.346 264.458, 349.545 262.997 C 342.420 262.443, 336.142 261.542, 335.595 260.995 C 334.935 260.335, 335.131 260, 336.178 260 C 337.045 260, 338.315 259.325, 339 258.500 C 340.091 257.185, 339.088 256.996, 330.872 256.970 C 324.016 256.947, 321.970 256.666, 323.250 255.920 C 325.991 254.323, 325.401 252.002, 322.250 251.985 C 320.738 251.976, 319.995 251.639, 320.601 251.235 C 321.207 250.831, 321.932 249.263, 322.212 247.750 C 322.917 243.952, 322.022 244.028, 311.271 248.677 C 296.551 255.043, 296.444 252.340, 311.098 244.300 C 312.969 243.274, 316.404 241.211, 318.730 239.717 C 321.057 238.223, 324.057 237, 325.397 237 C 326.737 237, 327.998 236.506, 328.199 235.902 C 328.401 235.298, 330.661 234.567, 333.223 234.278 C 336.095 233.955, 338.104 233.170, 338.464 232.232 C 338.967 230.922, 337.971 230.791, 331.274 231.293 C 323.778 231.853, 320.231 232.705, 313.216 235.631 C 311.410 236.384, 308.778 237, 307.367 237 C 305.956 237, 303.384 237.621, 301.651 238.380 C 287.803 244.447, 278 248.019, 278 246.998 C 278 245.956, 284.517 240.841, 288.500 238.757 C 291.567 237.153, 295.895 235.660, 306.500 232.548 C 309.800 231.580, 313.569 230.369, 314.875 229.858 C 318.208 228.554, 336.045 226.609, 345 226.573 C 353.811 226.538, 369.904 228.675, 371.632 230.110 C 372.295 230.660, 375.237 230.970, 378.169 230.799 C 383.055 230.515, 383.291 230.394, 381 229.351 C 379.625 228.725, 375.800 227.448, 372.500 226.514 C 369.200 225.580, 365.150 224.425, 363.500 223.947 C 352.276 220.696, 329.135 220.458, 317.133 223.471 C 314.035 224.248, 307.450 225.880, 302.500 227.096 C 297.550 228.312, 293.072 229.688, 292.550 230.154 C 292.027 230.619, 290.845 231, 289.922 231 C 289 231, 287.685 231.675, 287 232.500 C 286.315 233.325, 284.981 234, 284.035 234 C 283.089 234, 280.331 235.117, 277.907 236.483 C 275.483 237.849, 272.600 239.373, 271.500 239.870 C 263.331 243.562, 237 267.068, 237 270.670 C 237 271.401, 236.645 272, 236.212 272 C 235.167 272, 227.928 283.202, 224.902 289.500 C 223.581 292.250, 222.162 294.650, 221.750 294.833 C 221.338 295.017, 221 295.624, 221 296.182 C 221 296.741, 220.380 298.616, 219.622 300.349 C 216.152 308.282, 212.427 321.086, 210.849 330.500 C 209.154 340.612, 209.407 377.200, 211.260 390 C 212.572 399.070, 212.587 400.806, 211.367 402.750 C 209.666 405.459, 209.147 405.522, 207.292 403.250 C 206.005 401.674, 205.938 401.798, 206.615 404.500 C 207.587 408.384, 207.565 411.770, 206.544 415.500 C 205.729 418.481, 205.736 418.487, 207.612 416.471 C 208.650 415.355, 212.425 411.980, 216 408.971 C 219.575 405.962, 222.650 403.162, 222.833 402.750 C 223.017 402.337, 223.804 402, 224.583 402 C 225.363 402, 226 401.594, 226 401.099 C 226 399.998, 233.056 395.723, 233.742 396.408 C 235.123 397.790, 231.367 403.769, 225.824 409.011 C 222.390 412.258, 219.808 415.141, 220.084 415.418 C 220.361 415.695, 222.593 414.591, 225.044 412.965 C 227.495 411.339, 230.175 410.014, 231 410.020 C 231.881 410.026, 232.087 410.334, 231.500 410.765 C 230.950 411.169, 229.825 412.400, 229 413.500 C 227.604 415.361, 227.623 415.403, 229.274 414.107 C 231.901 412.046, 232.645 413.638, 230.641 417.031 C 228.766 420.204, 229.583 420.777, 233.316 418.904 C 234.865 418.127, 234.628 418.587, 232.500 420.486 L 229.500 423.163 232.500 422.446 L 235.500 421.729 232.688 424.734 C 230.560 427.008, 230.217 427.869, 231.279 428.277 C 232.050 428.573, 233.316 428.413, 234.091 427.923 C 236.948 426.114, 237.210 427.076, 234.535 429.555 C 231.227 432.621, 231.788 433.840, 235.413 431.465 C 238.258 429.601, 238.824 430.033, 236.536 432.321 C 235.730 433.127, 234.943 434.353, 234.786 435.046 C 234.629 435.739, 233.192 437.591, 231.592 439.162 C 229.993 440.733, 228.892 442.225, 229.145 442.478 C 230.446 443.779, 235.985 443.059, 239.644 441.113 C 242.457 439.617, 244.625 439.119, 246.394 439.563 C 250.613 440.622, 249.799 441.708, 239.820 448.331 C 225.329 457.950, 231.989 456.987, 253.385 446.369 C 254.972 445.582, 256.442 445.109, 256.651 445.318 C 257.400 446.067, 241.397 460, 239.787 460 C 239.332 460, 237.207 461.107, 235.063 462.460 C 232.920 463.813, 230.004 465.212, 228.583 465.569 C 227.162 465.925, 226 466.618, 226 467.108 C 226 467.599, 225.525 468, 224.945 468 C 223.299 468, 215.193 471.879, 214.502 472.997 C 213.428 474.735, 211 474.085, 211 472.059 C 211 470.991, 210.550 469.840, 210 469.500 C 208.374 468.495, 208.853 471.256, 211 475.261 C 213.393 479.726, 213.515 482.832, 211.487 487.686 C 209.379 492.730, 210.133 492.743, 212.900 487.710 C 214.392 484.995, 216.534 482.879, 218.934 481.750 C 224.689 479.044, 224.724 479.149, 220.917 487.686 C 219.890 489.989, 218.479 493.701, 217.781 495.936 C 217.084 498.171, 216.227 500, 215.878 500 C 215.528 500, 214.683 501.350, 214 503 C 213.317 504.650, 212.362 506, 211.879 506 C 211.395 506, 211 506.675, 211 507.500 C 211 508.325, 210.550 509, 210 509 C 209.450 509, 209 509.675, 209 510.500 C 209 511.325, 208.647 512, 208.216 512 C 207.784 512, 206.634 513.350, 205.659 515 C 203.474 518.700, 204.227 518.803, 213 516 C 216.443 514.900, 219.527 514, 219.853 514 C 220.897 514, 216.696 516.616, 209.500 520.448 C 202.088 524.395, 199.239 526.572, 200.212 527.546 C 200.785 528.118, 207.395 526.618, 211.500 524.983 C 215.817 523.264, 240.671 510.845, 243.500 508.993 C 245.150 507.913, 247.616 506.545, 248.980 505.952 C 250.343 505.360, 251.693 504.566, 251.980 504.187 C 252.266 503.809, 254.289 502.600, 256.476 501.500 C 258.662 500.400, 261.137 498.919, 261.976 498.209 C 262.814 497.499, 267.100 494.320, 271.500 491.143 C 279.649 485.261, 290.094 475.442, 295.500 468.581 C 297.150 466.488, 299.347 463.813, 300.383 462.637 C 304.669 457.773, 316 438.072, 316 435.485 C 316 435.227, 316.984 433.884, 318.187 432.500 C 319.802 430.643, 320.582 430.314, 321.171 431.243 C 321.739 432.137, 321.974 431.978, 321.985 430.691 C 321.993 429.696, 322.423 429.143, 322.940 429.463 C 323.955 430.090, 323.188 433.013, 319.718 441.750 C 318.570 444.637, 317.265 447, 316.816 447 C 316.367 447, 316 447.427, 316 447.950 C 316 448.472, 314.650 450.900, 313 453.345 C 311.350 455.790, 310 458.287, 310 458.895 C 310 459.503, 309.656 460, 309.236 460 C 308.816 460, 307.360 461.800, 306 464 C 304.640 466.200, 303.244 468, 302.897 468 C 302.550 468, 301.127 469.688, 299.736 471.750 C 296.375 476.730, 283.750 489.698, 277.500 494.588 C 274.750 496.740, 272.350 498.837, 272.167 499.250 C 271.983 499.662, 271.466 500, 271.017 500 C 270.232 500, 260.777 505.944, 258.292 508.001 C 257.628 508.550, 256.886 509, 256.644 509 C 256.402 509, 253.236 510.804, 249.607 513.008 C 242.729 517.187, 228.796 524, 227.130 524 C 226.600 524, 226.017 524.337, 225.833 524.750 C 225.650 525.163, 223.475 526.548, 221 527.828 C 218.300 529.226, 217.506 529.941, 219.015 529.618 C 221.325 529.124, 221.803 529.688, 224.901 536.572 C 227.858 543.143, 228.207 544.781, 227.743 549.895 C 226.633 562.141, 219.788 571.460, 207.766 577.095 L 200.500 580.500 174 581.249 C 149.122 581.952, 122.072 583.486, 128.306 583.840 C 132.877 584.100, 143.121 589.781, 148.093 594.814 C 150.639 597.391, 154.153 602.185, 155.902 605.467 C 158.683 610.686, 159.045 612.243, 158.791 617.887 C 158.608 621.940, 158.035 624.494, 157.250 624.754 C 156.434 625.023, 156 624.115, 156 622.142 C 156 620.479, 155.550 618.840, 155 618.500 C 154.450 618.160, 154 617.045, 154 616.023 C 154 612.712, 148.788 603.675, 144.361 599.311 C 141.988 596.971, 137.673 593.811, 134.773 592.288 C 129.931 589.746, 128.641 589.527, 119 589.621 C 109.119 589.716, 108.146 589.916, 102.500 592.997 C 99.200 594.799, 95.422 597.430, 94.104 598.846 C 90.141 603.101, 85.354 611.244, 84.314 615.500 C 83.734 617.872, 82.818 619.384, 82.063 619.215 C 81.363 619.058, 80.162 619.451, 79.395 620.087 C 78.245 621.042, 78 620.598, 78 617.558 C 78 613.301, 81.246 605.068, 84.923 600 C 87.922 595.865, 93.803 590, 94.949 590 C 95.392 590, 96.373 589.251, 97.128 588.336 C 98.364 586.837, 98.290 586.784, 96.380 587.802 C 94.042 589.047, 88.998 590.394, 78.751 592.507 C 71.718 593.958, 65.378 596.550, 71.808 595.346 L 75.116 594.727 72.360 599.289 C 70.838 601.809, 67.620 605.115, 65.171 606.676 C 62.732 608.229, 60.293 609.785, 59.750 610.132 C 59.198 610.486, 61.965 615.550, 66.035 621.632 C 110.654 688.315, 172.325 739.472, 244.890 769.995 C 258.838 775.861, 289.891 786.443, 290.721 785.612 C 291.027 785.306, 289.979 784.562, 288.393 783.959 C 286.807 783.356, 284.157 781.872, 282.504 780.662 C 280.852 779.451, 277.475 777.433, 275 776.176 C 272.525 774.919, 269.150 773.021, 267.500 771.957 C 265.850 770.893, 263.825 769.712, 263 769.334 C 262.175 768.956, 261.275 768.352, 261 767.992 C 260.725 767.633, 256.900 764.924, 252.500 761.972 C 248.100 759.021, 243.939 756.132, 243.252 755.553 C 240.506 753.235, 223 735.900, 223 735.499 C 223 735.262, 221.762 733.764, 220.250 732.168 C 216.082 727.771, 214 725.075, 214 724.072 C 214 723.574, 213.594 723.017, 213.098 722.833 C 211.798 722.353, 198.176 701.620, 196.977 698.297 C 195.821 695.095, 195.897 695.169, 213 714.026 C 222.975 725.024, 245.649 747.993, 250.120 751.630 C 251.561 752.802, 256.285 756.505, 260.620 759.859 C 264.954 763.213, 270.075 767.305, 272 768.952 C 273.925 770.599, 276.063 771.958, 276.750 771.973 C 277.438 771.988, 278 772.387, 278 772.860 C 278 773.892, 295.757 785.471, 298.838 786.449 C 300.027 786.826, 301 787.501, 301 787.949 C 301 788.864, 305.924 790.203, 319.929 793.096 C 338.688 796.972, 356.750 799.200, 373.725 799.732 C 383.199 800.029, 390.718 800.647, 390.434 801.106 C 389.342 802.874, 396.254 803.499, 416.500 803.464 C 450.614 803.406, 462.766 800.914, 524.500 781.312 C 541.105 776.039, 558.777 768.877, 575.984 760.446 C 584.501 756.274, 591.701 752.519, 591.984 752.103 C 592.268 751.686, 596.550 749.313, 601.500 746.829 C 623.654 735.712, 639.970 724.259, 659.703 705.973 C 671.799 694.764, 672.774 693.598, 671.815 691.493 C 671.023 689.755, 671.215 687.915, 672.613 683.852 C 673.896 680.124, 674.437 675.768, 674.396 669.496 C 674.344 661.550, 673.971 659.725, 671.223 653.967 C 662.982 636.700, 639.280 613.368, 611.110 594.793 C 596.622 585.239, 590.234 581.812, 577 576.493 C 543.934 563.205, 514.269 558.532, 503.422 564.903 C 501.265 566.170, 499.140 567.835, 498.700 568.603 C 498.247 569.396, 496.299 570.010, 494.200 570.022 C 489.308 570.051, 482.887 573.055, 480.087 576.624 C 476.227 581.544, 471.097 585.179, 463.849 588.128 C 460.012 589.690, 454.217 593.054, 450.971 595.604 L 445.070 600.240 438.785 599.151 C 435.328 598.553, 425.300 597.549, 416.500 596.920 C 407.700 596.291, 400.405 595.694, 400.290 595.594 C 400.174 595.495, 399.785 590.033, 399.425 583.456 C 398.898 573.821, 399.102 570.238, 400.477 565 C 404.032 551.462, 410.523 542.274, 423.626 532.232 C 436.884 522.071, 437.115 521.969, 444.122 523.097 C 447.523 523.645, 451.024 524.460, 451.902 524.909 C 452.781 525.357, 456.425 525.961, 460 526.251 C 463.575 526.541, 465.634 526.554, 464.575 526.282 C 461.544 525.501, 451.895 520.067, 447.500 516.667 C 439.403 510.402, 433.219 502.653, 429.010 493.500 C 421.738 477.684, 420.224 473.442, 418.483 464 C 417.621 459.325, 416.259 452.708, 415.458 449.294 C 413.836 442.389, 413.507 433.577, 414.903 434.440 C 415.400 434.747, 417.496 438.599, 419.561 442.999 C 421.626 447.400, 423.694 451, 424.158 451 C 425.239 451, 425.225 449.680, 424.116 446.797 C 423.629 445.534, 422.215 441.125, 420.973 437 C 419.730 432.875, 418.328 429.072, 417.857 428.550 C 417.386 428.027, 417 427.002, 417 426.272 C 417 425.542, 414.750 420.244, 412 414.500 C 409.250 408.756, 407 403.624, 407 403.095 C 407 402.567, 407.900 401.849, 409 401.500 C 410.100 401.151, 411 400.446, 411 399.933 C 411 399.420, 411.629 399, 412.397 399 C 413.166 399, 416.516 397.650, 419.841 396 C 423.167 394.350, 427.053 393, 428.477 393 C 431.323 393, 438.285 396.288, 444.500 400.567 C 446.700 402.081, 451.875 405.080, 456 407.230 C 464.670 411.750, 467.612 414.275, 473.635 422.360 L 478 428.220 478 420.777 C 478 416.683, 478.227 413.106, 478.505 412.828 C 478.783 412.551, 481.746 412.738, 485.090 413.244 C 491.577 414.226, 492.965 413.868, 491.150 411.681 C 490.526 410.929, 489.287 407.088, 488.397 403.145 L 486.778 395.977 490.389 391.570 C 492.375 389.146, 494 386.841, 494 386.448 C 494 385.312, 488.952 381.278, 485.061 379.306 C 483.102 378.313, 481.275 377.238, 481 376.919 C 479.781 375.501, 467.507 373.771, 462.407 374.297 C 457.461 374.808, 456.908 374.683, 457.486 373.186 C 457.845 372.259, 458.649 369.870, 459.273 367.877 C 460.113 365.195, 461.233 363.956, 463.588 363.104 C 466.775 361.952, 491.558 359.953, 493.570 360.686 C 494.159 360.901, 495.099 362.296, 495.658 363.788 C 496.491 366.007, 496.660 365.139, 496.588 359.016 L 496.500 351.532 499.500 350.981 C 502.823 350.370, 508.370 353.018, 510.325 356.148 C 512.466 359.577, 513.933 358.403, 512.696 354.250 C 512.083 352.188, 511.285 350.275, 510.925 350 C 510.564 349.725, 509.932 348.375, 509.520 347 C 509.108 345.625, 507.076 342.228, 505.005 339.451 C 501.551 334.820, 501.133 333.537, 499.961 323.950 C 498.743 313.983, 499.029 308.076, 500.871 305.174 C 501.333 304.445, 503.615 303.593, 505.942 303.281 C 508.618 302.922, 510.344 302.123, 510.637 301.107 C 510.893 300.223, 511.754 298.226, 512.551 296.669 C 513.348 295.112, 513.933 292.412, 513.850 290.669 C 513.713 287.768, 513.666 287.726, 513.292 290.165 C 512.815 293.278, 511.782 293.784, 504.165 294.638 C 501.049 294.987, 498.050 295.606, 497.500 296.013 C 496.950 296.420, 493.800 297.074, 490.500 297.466 C 484.198 298.214, 481.543 299.016, 460.500 306.530 C 453.350 309.083, 445.925 311.630, 444 312.190 C 442.075 312.750, 440.050 313.546, 439.500 313.960 C 438.950 314.373, 437.600 314.967, 436.500 315.279 C 432.727 316.350, 418.499 321.769, 413 324.228 C 409.975 325.581, 405.925 327.276, 404 327.995 C 402.075 328.714, 397.796 330.520, 394.491 332.007 C 391.186 333.495, 387.361 335.063, 385.991 335.491 C 384.621 335.919, 383.275 336.568, 383 336.934 C 382.317 337.841, 371.162 342, 369.411 342 C 366.984 342, 367.873 339.070, 370.500 338.411 C 371.875 338.066, 373 337.382, 373 336.892 C 373 336.401, 373.440 336, 373.978 336 C 374.516 336, 378.454 334.393, 382.728 332.428 C 387.003 330.464, 391.850 328.263, 393.500 327.538 C 395.150 326.813, 398.975 325.074, 402 323.675 C 405.025 322.276, 409.975 320.189, 413 319.038 C 416.025 317.887, 419.400 316.563, 420.500 316.097 C 425.624 313.925, 428.866 312.703, 434.458 310.838 C 437.781 309.730, 441.850 308.233, 443.500 307.511 C 445.150 306.789, 448.750 305.469, 451.500 304.577 C 454.250 303.684, 457.400 302.547, 458.500 302.049 C 459.600 301.551, 463.425 300.198, 467 299.042 C 470.575 297.887, 474.400 296.568, 475.500 296.111 C 476.600 295.654, 479.975 294.590, 483 293.747 C 502.334 288.359, 511.019 285.685, 510.587 285.253 C 510.372 285.039, 507.821 285.570, 504.917 286.432 C 502.013 287.294, 498.031 287.991, 496.068 287.980 C 492.884 287.962, 492.198 287.452, 489.693 283.230 C 488.150 280.629, 485.959 277.375, 484.825 276 L 482.763 273.500 484.381 276.250 C 485.272 277.762, 486.678 280.051, 487.508 281.336 C 488.926 283.534, 488.864 283.741, 486.461 284.836 C 485.055 285.476, 483.140 285.998, 482.203 285.995 C 480.381 285.990, 472.803 288.328, 466.883 290.721 C 464.893 291.526, 460.393 292.312, 456.883 292.469 C 451.046 292.730, 444.632 294.049, 439.500 296.044 C 430.626 299.492, 423 300.859, 423 299 C 423 298.450, 423.418 298, 423.929 298 C 424.439 298, 425.460 297.438, 426.197 296.750 C 426.934 296.063, 429.103 294.625, 431.018 293.556 C 432.933 292.487, 435.095 291.024, 435.821 290.306 C 436.913 289.227, 436.739 289.006, 434.821 289.032 C 433.545 289.049, 431.626 289.724, 430.559 290.532 C 429.491 291.339, 427.749 292, 426.686 292 C 425.083 292, 424.967 291.745, 426 290.500 C 426.685 289.675, 427.681 289, 428.215 289 C 428.748 289, 430.329 288.100, 431.727 287 C 434.549 284.780, 434.200 284.653, 428.757 285.917 C 426.568 286.425, 425.243 286.415, 425.566 285.893 C 425.870 285.402, 425.416 285, 424.559 285 C 423.702 285, 423 284.550, 423 284 C 423 283.450, 423.637 283, 424.417 283 C 425.196 283, 425.983 282.662, 426.167 282.250 C 426.350 281.837, 428.190 280.640, 430.256 279.589 C 434.857 277.249, 434.621 276.714, 429.600 278.100 C 427.517 278.675, 425.623 278.957, 425.392 278.725 C 424.908 278.242, 435.818 271, 437.030 271 C 437.472 271, 437.983 270.654, 438.167 270.232 C 438.350 269.810, 442.887 267.285, 448.250 264.622 C 453.613 261.959, 458 259.565, 458 259.302 C 458 258.522, 449.850 260.028, 445 261.704 C 442.525 262.559, 436.900 264.960, 432.500 267.040 C 419.839 273.024, 414.844 275.088, 409.721 276.451 C 405.087 277.684, 404.993 277.666, 406.626 275.861 C 407.552 274.838, 408.695 274, 409.166 274 C 409.637 274, 412.605 272.247, 415.761 270.105 C 422.027 265.851, 439.429 257, 441.525 257 C 442.245 257, 442.983 256.663, 443.167 256.250 C 443.684 255.086, 459.603 248.812, 462.457 248.647 C 463.855 248.566, 464.999 248.365, 464.999 248.200 C 465.002 246.901, 461.613 241.843, 459.967 240.689 C 458.016 239.323, 458.119 239.206, 462.211 238.140 C 467.009 236.891, 469.738 235.405, 468.856 234.523 C 468.302 233.969, 467.090 234.448, 459.169 238.357 C 457.337 239.260, 455.400 240, 454.864 240 C 453.066 240, 414.106 259.544, 411.500 261.753 C 410.950 262.219, 409.825 262.921, 409 263.311 C 408.175 263.702, 406.311 264.805, 404.858 265.761 C 393.586 273.181, 389.956 275.028, 387.083 274.809 C 385.387 274.680, 384 274.511, 384 274.433 C 384 273.785, 389.105 269, 389.797 269 C 390.288 269, 391.476 268.132, 392.436 267.071 C 393.396 266.010, 395.603 264.415, 397.341 263.526 C 399.078 262.638, 401.679 261.143, 403.120 260.205 C 409.619 255.974, 418.184 251, 418.970 251 C 419.445 251, 419.983 250.649, 420.167 250.220 C 420.350 249.792, 425.578 246.942, 431.784 243.887 C 440.687 239.505, 442.426 238.333, 440.026 238.333 C 436.945 238.333, 432 234.733, 432 232.490 C 432 231.851, 436.308 226.762, 441.572 221.181 L 451.145 211.033 454.824 212.910 C 456.847 213.942, 464.978 219.110, 472.892 224.393 C 480.807 229.677, 487.602 234, 487.993 234 C 489.438 234, 624.097 94.788, 623.738 93.665 C 623.021 91.421, 600.562 77.106, 586.098 69.673 C 539.850 45.909, 486.162 30.194, 431.936 24.549 C 413.281 22.607, 381.152 21.887, 364.575 23.039 M 314.500 257 C 312.783 257.738, 312.924 257.867, 315.500 257.914 C 317.150 257.945, 319.175 257.533, 320 257 C 321.182 256.236, 320.970 256.042, 319 256.086 C 317.625 256.116, 315.600 256.527, 314.500 257 M 472.030 258.550 C 472.046 259.072, 473.894 261.525, 476.136 264 L 480.211 268.500 476.928 264 C 472.590 258.055, 471.993 257.392, 472.030 258.550 M 481.500 310.741 C 464.132 315.582, 454.725 318.542, 451.891 320.059 C 450.248 320.938, 450.285 321.354, 452.487 326.748 C 453.778 329.912, 455.512 333.793, 456.338 335.374 C 458.432 339.378, 457.494 341, 453.084 341 C 451.048 341, 448.509 341.661, 447.441 342.468 C 446.374 343.276, 444.764 343.951, 443.864 343.968 C 442.965 343.986, 440.940 344.672, 439.364 345.494 C 437.789 346.315, 435.825 347.005, 435 347.026 C 434.175 347.047, 432.626 347.724, 431.559 348.532 C 430.491 349.339, 428.129 350, 426.309 350 C 424.489 350, 423 350.450, 423 351 C 423 351.550, 421.988 352.003, 420.750 352.006 C 419.512 352.010, 417.375 352.589, 416 353.295 C 414.625 354, 411.380 355.378, 408.790 356.356 C 402.865 358.594, 396.178 361.909, 397.500 361.954 C 398.050 361.973, 399.797 361.311, 401.382 360.484 C 402.968 359.658, 406.118 358.690, 408.382 358.335 C 410.647 357.979, 414.433 356.865, 416.797 355.859 C 419.160 354.854, 421.410 354.125, 421.797 354.240 C 422.893 354.566, 432.388 351.806, 433.450 350.853 C 433.973 350.384, 435.181 350, 436.135 350 C 437.089 350, 439.137 349.470, 440.685 348.821 C 442.233 348.173, 446.425 347.032, 450 346.286 C 455.921 345.051, 460.924 344.335, 477 342.425 C 480.025 342.065, 483.625 341.634, 485 341.467 C 486.375 341.299, 488.647 341.126, 490.049 341.081 C 492.392 341.007, 492.565 340.696, 492.181 337.250 C 491.951 335.188, 491.403 333.049, 490.964 332.497 C 490.524 331.945, 489.670 327.053, 489.065 321.626 C 488.459 316.199, 487.635 311.216, 487.232 310.553 C 486.666 309.620, 485.367 309.663, 481.500 310.741 M 305.500 313.673 C 287.270 319.322, 275.884 331.112, 271.549 348.831 C 270.697 352.313, 270.009 356.813, 270.019 358.831 C 270.048 364.291, 272.422 372.458, 274.074 372.776 C 275.258 373.004, 275.452 371.624, 275.156 365.094 C 274.798 357.222, 275.989 351.381, 279.588 343.349 C 280.365 341.616, 281 339.703, 281 339.099 C 281 338.494, 281.337 337.988, 281.750 337.973 C 282.163 337.958, 283.559 336.228, 284.853 334.128 C 286.148 332.027, 288.398 329.604, 289.853 328.741 C 291.309 327.879, 293.850 326.001, 295.500 324.568 C 299.401 321.180, 310.139 318, 317.676 318 C 333.145 318, 348.407 327.580, 355.620 341.817 C 358.393 347.288, 358.500 348.031, 358.500 361.755 C 358.500 369.595, 358.671 375.445, 358.880 374.755 C 359.090 374.065, 359.990 372.664, 360.880 371.642 C 362.183 370.148, 362.500 367.399, 362.500 357.609 C 362.500 343.690, 361.454 340.259, 354.384 331 C 349.051 324.016, 345.699 321.163, 338.925 317.837 C 326.954 311.962, 315.591 310.546, 305.500 313.673 M 306.598 326.719 C 303.798 327.435, 295 333.023, 295 334.086 C 295 335.499, 299.289 335.170, 304.124 333.385 C 306.534 332.495, 311.893 331.712, 316.050 331.643 C 324.712 331.497, 329.442 333.163, 337.617 339.237 C 340.844 341.635, 343.337 342.808, 344.367 342.413 C 345.265 342.068, 346 341.630, 346 341.440 C 346 340.247, 343.532 336, 342.839 336 C 342.378 336, 341.185 335.185, 340.189 334.189 C 336.998 330.998, 333.614 329, 331.400 329 C 330.215 329, 328.685 328.325, 328 327.500 C 327.045 326.350, 324.627 326.027, 317.628 326.116 C 312.607 326.180, 307.644 326.451, 306.598 326.719 M 313.492 345.012 C 313.148 345.569, 314.691 347.831, 316.921 350.039 C 319.151 352.246, 321.254 355.166, 321.596 356.526 C 322.329 359.447, 322.046 359.378, 325.636 357.506 C 327.211 356.685, 329.261 356.010, 330.191 356.006 C 332.769 355.997, 333.018 354.750, 331.199 350.960 C 328.575 345.490, 326.242 344.071, 319.809 344.033 C 316.679 344.015, 313.836 344.456, 313.492 345.012 M 475 347.027 C 468.675 347.318, 463.009 347.863, 462.408 348.239 C 461.807 348.615, 458.882 349.364, 455.908 349.904 C 452.934 350.444, 448.250 351.550, 445.500 352.362 C 442.750 353.174, 436.450 354.994, 431.500 356.407 C 416.658 360.644, 405.521 364.366, 405.167 365.208 C 404.983 365.643, 404.121 366, 403.250 366 C 402.379 366, 401.949 366.282, 402.293 366.626 C 402.968 367.301, 418.172 364.030, 419 363.032 C 419.275 362.700, 421.975 361.870, 425 361.187 C 433.555 359.255, 438.239 358.229, 441.500 357.572 C 443.150 357.239, 447.425 356.379, 451 355.660 C 454.575 354.941, 458.175 354.085, 459 353.759 C 462.042 352.555, 478.841 350.673, 490.250 350.259 C 499.518 349.923, 502 349.533, 502 348.416 C 502 347.637, 500.988 346.920, 499.750 346.823 C 494.971 346.447, 486.040 346.521, 475 347.027 M 310.435 348.104 C 309.266 349.997, 308.594 362.369, 309.698 361.687 C 310.246 361.348, 311.972 362.405, 313.534 364.036 C 316.645 367.282, 322 368.209, 322 365.500 C 322 364.675, 321.161 364, 320.135 364 C 319.109 364, 317.084 363.067, 315.635 361.927 C 313.277 360.072, 313 359.180, 313 353.427 C 313 347.443, 312.056 345.483, 310.435 348.104 M 388.500 364.522 C 385.750 365.846, 384.261 366.945, 385.191 366.964 C 386.121 366.984, 387.136 366.589, 387.446 366.087 C 387.757 365.585, 389.808 364.870, 392.005 364.499 C 394.202 364.128, 396 363.414, 396 362.912 C 396 361.474, 393.894 361.926, 388.500 364.522 M 378 368 C 378 368.550, 376.988 369.052, 375.750 369.116 C 374.398 369.186, 374.119 369.399, 375.052 369.651 C 375.905 369.882, 378.155 369.397, 380.052 368.574 C 383.441 367.104, 383.453 367.078, 380.750 367.039 C 379.238 367.018, 378 367.450, 378 368 M 449 383.229 C 447.625 383.831, 444.700 385.114, 442.500 386.081 C 440.300 387.048, 437.600 388.208, 436.500 388.659 C 432.447 390.321, 448.309 390.179, 455 388.494 C 470.229 384.658, 470.244 384.652, 468.353 383.269 C 466.216 381.706, 452.544 381.678, 449 383.229 M 457.036 397.174 L 453.572 398.168 456.036 400.062 C 457.721 401.357, 460.159 401.963, 463.750 401.978 C 468.189 401.997, 469 401.716, 469 400.161 C 469 398.243, 465.145 395.934, 462.203 396.090 C 461.266 396.140, 458.941 396.628, 457.036 397.174 M 344.669 407.250 C 338.791 415.102, 337.468 421.675, 340.736 426.785 C 342.881 430.139, 344.470 431.496, 349.210 434.023 C 354.791 436.997, 356 436.664, 356 432.155 C 356 428.446, 353.749 425, 351.326 425 C 350.767 425, 349.565 424.177, 348.655 423.171 C 346.785 421.105, 346.397 412.589, 347.930 407.243 C 349.122 403.087, 347.783 403.090, 344.669 407.250 M 207 419.601 C 207 420.165, 208.393 421.948, 210.095 423.563 C 211.797 425.178, 214.700 429.425, 216.546 433 C 218.391 436.575, 219.924 438.739, 219.951 437.809 C 219.978 436.879, 219.585 435.861, 219.077 435.548 C 218.569 435.234, 217.862 433.649, 217.506 432.026 C 216.883 429.190, 207 417.502, 207 419.601 M 479.250 447.716 C 477.168 452.185, 477.726 455.572, 481.101 458.948 C 484.531 462.377, 487.006 462.656, 497 460.738 C 500.025 460.157, 503.236 459.722, 504.136 459.770 C 505.546 459.846, 505.615 459.436, 504.636 456.811 L 503.500 453.763 494.272 454.241 C 483.486 454.800, 481.288 453.863, 480.809 448.502 L 480.500 445.034 479.250 447.716 M 221.350 448.470 C 221.730 449.459, 221.751 451.810, 221.397 453.695 C 220.867 456.524, 219.832 457.642, 215.459 460.110 C 209.900 463.247, 205.939 466.756, 209.635 465.269 C 210.686 464.846, 214.123 463.004, 217.273 461.177 L 223 457.853 223 452.986 C 223 450.308, 222.474 447.793, 221.830 447.395 C 221.026 446.898, 220.876 447.234, 221.350 448.470 M 372 452.816 C 372 456.454, 374.128 466.018, 375.540 468.724 C 376.336 470.251, 376.990 472.063, 376.994 472.750 C 376.997 473.438, 377.675 474, 378.500 474 C 379.325 474, 380 474.675, 380 475.500 C 380 476.325, 380.401 477, 380.892 477 C 381.382 477, 382.066 478.125, 382.411 479.500 C 382.756 480.875, 383.480 482, 384.019 482 C 384.559 482, 385 482.516, 385 483.147 C 385 484.524, 390.916 491.863, 396.642 497.589 C 401.735 502.682, 416.243 512.338, 423.854 515.700 C 426.959 517.071, 430.999 518.864, 432.831 519.682 C 437.482 521.760, 437.826 520.736, 433.258 518.411 C 424.319 513.860, 410.660 504.070, 401.137 495.389 C 394.729 489.546, 386.513 478.663, 382.580 470.805 C 381.011 467.673, 379.157 464.891, 378.459 464.622 C 377.760 464.354, 376.887 462.760, 376.517 461.079 C 376.148 459.398, 375.431 457.766, 374.923 457.452 C 374.415 457.139, 374 455.559, 374 453.941 C 374 452.323, 373.550 451, 373 451 C 372.450 451, 372 451.817, 372 452.816 M 361.601 462 C 363.007 476.759, 371.095 492.289, 381.132 499.500 C 386.949 503.678, 388.417 503.557, 384.315 499.238 C 377.994 492.581, 374.257 487.881, 372.429 484.291 C 371.368 482.206, 370.236 480.275, 369.914 480 C 369.591 479.725, 368.837 478.150, 368.236 476.500 C 367.636 474.850, 366.170 471.025, 364.978 468 C 363.785 464.975, 362.420 461.150, 361.944 459.500 C 361.302 457.280, 361.213 457.930, 361.601 462 M 492.750 464.583 C 491.659 465.674, 491.832 470.817, 493.035 473.066 C 493.924 474.727, 493.733 475, 491.684 475 C 487.483 475, 477.146 478.990, 474.194 481.750 C 473.459 482.438, 471.277 483, 469.345 483 C 466.979 483, 465.970 483.408, 466.252 484.250 C 466.549 485.135, 469.650 485.519, 476.866 485.566 C 487.735 485.637, 491.012 486.919, 489.617 490.556 C 489.076 491.965, 488.128 492.159, 484.230 491.658 L 479.500 491.049 481.791 492.967 C 484.035 494.848, 484.042 494.907, 482.106 495.943 C 481.020 496.524, 479.067 497, 477.766 497 C 476.465 497, 474.860 497.540, 474.200 498.200 C 472.817 499.583, 472.580 503, 473.867 503 C 475.392 503, 480.137 511.072, 480.719 514.657 C 481.602 520.098, 483.351 516.997, 483.478 509.766 C 483.571 504.470, 484.108 502.686, 486.948 498.242 C 488.797 495.350, 490.402 491.448, 490.516 489.571 C 490.645 487.444, 491.906 484.725, 493.862 482.352 C 497.253 478.237, 497.572 476.938, 495.940 473.888 C 495.357 472.798, 494.569 470.090, 494.190 467.870 C 493.810 465.650, 493.163 464.170, 492.750 464.583 M 330.845 493.635 C 327.570 494.639, 325.361 496.166, 323.398 498.781 C 321.862 500.827, 320.352 502.725, 320.041 503 C 319.159 503.781, 310.898 520.895, 309.976 523.852 C 309.521 525.309, 308.171 528.975, 306.975 532 C 305.779 535.025, 304.560 538.625, 304.266 540 C 303.972 541.375, 303.401 542.950, 302.997 543.500 C 302.592 544.050, 301.256 547.875, 300.027 552 C 298.799 556.125, 297.165 561.428, 296.397 563.785 C 295.628 566.142, 295 568.984, 295 570.101 C 295 571.218, 294.565 572.944, 294.034 573.936 C 293.503 574.929, 292.631 578.162, 292.096 581.120 C 291.561 584.079, 290.393 589.875, 289.499 594 C 288.593 598.185, 287.785 607.025, 287.670 614 L 287.466 626.500 282.483 626.385 C 279.742 626.321, 268.916 625.330, 258.425 624.183 C 236.767 621.813, 230.639 622.184, 241.610 625.200 C 245.400 626.242, 251.425 627.472, 255 627.934 C 263.736 629.062, 266.759 629.930, 267.354 631.480 C 268.073 633.355, 256.024 632.770, 218 629.085 C 205.022 627.827, 186.695 627.697, 187.419 628.868 C 187.714 629.346, 190.665 630.043, 193.978 630.418 C 197.290 630.793, 200 631.446, 200 631.870 C 200 632.293, 204.122 633.189, 209.159 633.859 C 214.197 634.530, 219.034 635.497, 219.909 636.009 C 221.643 637.023, 221.533 637.033, 205.800 637.334 C 200.784 637.430, 196.611 637.988, 195.947 638.653 C 193.688 640.912, 196.141 654.215, 200.388 662.745 C 201.825 665.630, 203 668.641, 203 669.436 C 203 670.231, 203.424 671.144, 203.941 671.464 C 204.459 671.784, 205.921 674.173, 207.190 676.773 C 208.460 679.373, 209.769 681.725, 210.099 682 C 210.430 682.275, 211.282 683.625, 211.993 685 C 213.551 688.015, 226.182 707.293, 227.063 708 C 227.405 708.275, 229.299 710.812, 231.271 713.638 C 233.243 716.464, 236.948 720.964, 239.503 723.638 C 253.089 737.853, 261.539 746, 262.699 746 C 263.415 746, 264 746.374, 264 746.830 C 264 747.287, 266.010 749.105, 268.467 750.869 C 270.924 752.633, 273.524 754.622, 274.244 755.288 C 276.546 757.417, 281.890 761, 282.763 761 C 283.806 761, 289.080 755.257, 290.676 752.382 C 294.292 745.869, 295.184 730.534, 292.524 720.593 C 291.655 717.344, 289.118 710.896, 286.886 706.263 C 284.654 701.630, 283.032 697.635, 283.281 697.386 C 284.558 696.109, 310 719.599, 310 722.055 C 310 722.603, 311.328 722.365, 312.950 721.526 C 314.573 720.687, 317.446 720, 319.335 720 C 321.779 720, 323.210 719.351, 324.295 717.750 C 326.669 714.248, 331.038 709.861, 336.500 705.496 C 339.250 703.298, 341.650 701.163, 341.833 700.750 C 342.017 700.337, 342.656 700, 343.255 700 C 343.853 700, 345.168 699.253, 346.177 698.339 C 349.629 695.216, 348.972 697.636, 344.536 704.391 C 338.838 713.066, 336.695 720.373, 337.174 729.488 C 337.550 736.621, 341.006 746, 343.259 746 C 343.854 746, 347.313 743.188, 350.947 739.750 C 360.329 730.875, 369.117 723, 369.639 723 C 369.883 723, 371.026 722.122, 372.177 721.050 C 373.328 719.977, 375.672 718.390, 377.385 717.522 C 381.180 715.601, 384.328 713.699, 385 712.922 C 385.579 712.254, 402.013 703, 402.622 703 C 402.846 703, 407.185 701.044, 412.264 698.652 C 417.344 696.261, 423.300 693.612, 425.500 692.765 C 427.700 691.918, 431.300 690.538, 433.500 689.697 C 435.700 688.856, 440.326 687.343, 443.781 686.334 C 451.355 684.122, 451.494 683.786, 450.639 669.673 C 449.757 655.099, 447.197 641.165, 444.684 637.250 C 444.140 636.402, 440.985 636, 434.870 636 C 426.859 636, 426.024 635.833, 427.357 634.500 C 428.182 633.675, 429.988 633, 431.370 633 C 432.751 633, 434.160 632.550, 434.500 632 C 434.840 631.450, 436.180 631, 437.477 631 C 440.609 631, 443 630.028, 443 628.754 C 443 627.627, 439.066 627.922, 419.500 630.514 C 402.776 632.730, 392.275 633.444, 393.500 632.280 C 394.750 631.094, 402.353 628.379, 407 627.461 C 408.925 627.080, 410.950 626.430, 411.500 626.015 C 412.050 625.600, 414.172 624.960, 416.215 624.592 C 422.909 623.386, 421.915 621.692, 414.886 622.328 C 397.797 623.876, 370.313 627.543, 365.176 628.962 C 363.216 629.503, 361.423 629.756, 361.192 629.525 C 360.960 629.294, 361.723 627.139, 362.886 624.736 C 364.048 622.334, 365.014 619.723, 365.032 618.934 C 365.049 618.145, 365.724 616.626, 366.532 615.559 C 367.339 614.491, 368 612.595, 368 611.346 C 368 610.096, 368.966 606.695, 370.147 603.787 C 371.328 600.879, 372.881 595.800, 373.598 592.500 C 376.974 576.964, 377.923 573.526, 378.923 573.192 C 380.311 572.730, 380.332 570, 378.948 570 C 378.369 570, 377.432 568.668, 376.864 567.041 C 374.920 561.463, 369.731 561.953, 360.500 568.585 C 357.200 570.956, 351.936 575.493, 348.802 578.667 C 345.668 581.840, 342.780 584.113, 342.384 583.717 C 341.725 583.058, 342.890 579.770, 345.118 576 C 345.606 575.175, 346.454 573.375, 347.003 572 C 347.552 570.625, 348.475 568.679, 349.055 567.676 C 349.635 566.672, 350.828 560.873, 351.707 554.788 C 353.187 544.529, 353.180 542.953, 351.604 533.112 C 349.896 522.449, 347.357 513.348, 344.849 508.895 C 343.061 505.720, 336.844 500.002, 335.179 500.001 C 334.452 500, 333.226 499.369, 332.454 498.597 C 331.250 497.393, 331.272 497.110, 332.605 496.598 C 334.463 495.885, 339 496.887, 339 498.011 C 339 498.447, 340.290 499.254, 341.867 499.804 C 343.444 500.354, 346.221 502.873, 348.037 505.402 C 351.445 510.147, 353 511.114, 353 508.487 C 353 507.123, 351.758 505.563, 343.833 496.970 C 341.936 494.913, 336.532 491.679, 335.703 492.104 C 335.591 492.161, 333.405 492.850, 330.845 493.635 M 174.500 532.544 C 171.200 535.543, 168.837 537.997, 169.249 537.998 C 169.661 537.999, 172.586 535.534, 175.749 532.521 C 183.176 525.445, 182.294 525.461, 174.500 532.544 M 105.773 598.930 C 99.115 602.307, 95.678 605.772, 92.932 611.876 C 91.061 616.035, 91.050 616.316, 92.720 617.538 C 94.699 618.984, 96.731 618.331, 95.155 616.755 C 93.839 615.439, 99.395 607.901, 103.371 605.609 C 109.184 602.259, 128 602.617, 128 606.078 C 128 606.585, 128.541 607, 129.201 607 C 131.249 607, 139.057 616.036, 139.674 619.119 C 139.995 620.726, 140.650 622.284, 141.129 622.580 C 141.608 622.876, 142 624.126, 142 625.359 C 142 627.668, 143.680 630, 145.344 630 C 145.913 630, 146.021 626.800, 145.615 621.934 C 145.110 615.881, 144.326 612.892, 142.471 609.954 C 141.112 607.801, 140 605.591, 140 605.043 C 140 604.495, 138.762 603.259, 137.250 602.296 C 135.738 601.334, 134.275 600.288, 134 599.972 C 132.444 598.184, 123.604 596.002, 117.967 596.013 C 112.826 596.023, 110.326 596.621, 105.773 598.930 M 464.098 597.539 C 465.862 599.704, 472.527 613.414, 475.989 622 C 477.209 625.025, 478.572 628.400, 479.018 629.500 C 479.875 631.614, 481.319 636.923, 483.505 646 C 484.234 649.025, 485.796 655.100, 486.977 659.500 C 491.504 676.365, 497.962 716.810, 498.076 729 C 498.112 732.902, 498.366 733.909, 498.951 732.466 C 499.405 731.347, 500.106 720.505, 500.510 708.372 C 501.126 689.877, 500.987 685.197, 499.653 679.407 C 497.107 668.360, 496.109 660.595, 497.099 659.550 C 497.649 658.970, 498 659.430, 498 660.729 C 498 661.899, 498.675 663.532, 499.500 664.357 C 500.325 665.182, 501.014 666.677, 501.032 667.679 C 501.049 668.680, 501.724 670.374, 502.532 671.441 C 503.339 672.509, 504 674.196, 504 675.191 C 504 676.186, 504.417 677, 504.927 677 C 505.436 677, 506.042 677.563, 506.272 678.250 C 506.502 678.938, 506.487 678.150, 506.240 676.500 C 505.992 674.850, 505.387 673.072, 504.895 672.550 C 503.711 671.293, 503.741 666, 504.933 666 C 505.446 666, 506.181 667.013, 506.567 668.250 C 506.954 669.487, 507.551 670.725, 507.895 671 C 508.239 671.275, 509.861 674.194, 511.499 677.487 C 513.520 681.549, 514.592 682.881, 514.833 681.630 C 515.028 680.617, 514.695 679.295, 514.094 678.694 C 513.492 678.092, 512.997 676.452, 512.994 675.050 C 512.990 673.647, 512.315 671.211, 511.494 669.636 C 509.459 665.735, 509.463 663.309, 511.500 665 C 512.325 665.685, 513 666.871, 513 667.636 C 513 668.401, 513.407 669.809, 513.905 670.764 C 514.403 671.719, 516.169 675.425, 517.828 679 C 519.488 682.575, 521.813 687.525, 522.995 690 C 525.078 694.361, 525.124 694.392, 524.485 691 C 523.568 686.125, 520.373 675.546, 517.841 669 C 514.867 661.309, 505.756 642.569, 504.796 642.167 C 504.358 641.983, 504 641.403, 504 640.876 C 504 639.755, 499.845 633.653, 498.750 633.167 C 498.337 632.983, 498 632.373, 498 631.811 C 498 630.897, 496.671 629.046, 489.521 620.003 C 484.797 614.030, 470.426 600.581, 465.327 597.363 C 462.542 595.605, 462.524 595.607, 464.098 597.539 M 314.739 604.875 C 313.691 609.659, 313.820 634.753, 314.911 638.429 C 318.768 651.424, 321.192 657, 322.986 657 C 324.184 657, 339.316 633.292, 343.551 624.779 C 347.628 616.586, 347.565 613.670, 343.417 618.498 C 341.252 621.017, 340.076 621.464, 334.707 621.802 C 329.418 622.136, 328.076 621.859, 325.632 619.931 C 321.845 616.945, 316.256 608.111, 315.823 604.429 L 315.478 601.500 314.739 604.875 M 457.648 607.500 C 457.925 609.700, 458.535 612.625, 459.003 614 C 459.472 615.375, 460.155 618.750, 460.521 621.500 C 460.887 624.250, 461.523 626.950, 461.933 627.500 C 464.066 630.362, 471.986 680.087, 471.996 690.685 C 471.998 692.987, 472.482 696.137, 473.070 697.685 C 475.073 702.953, 476.268 697.618, 476.223 683.602 C 476.139 657.071, 474.794 646.460, 469.055 627.080 C 467.631 622.273, 459.959 607, 458.968 607 C 458.516 607, 457.921 606.212, 457.645 605.250 C 457.369 604.288, 457.370 605.300, 457.648 607.500 M 106.856 613.265 C 101.147 618.332, 98.574 625.246, 101 629 C 101.824 630.276, 101.972 630.233, 101.985 628.715 C 102.026 623.848, 109.952 616.039, 114.872 616.016 C 117.612 616.003, 118.032 616.257, 117.110 617.367 C 116.249 618.405, 116.326 619.025, 117.428 619.940 C 118.227 620.604, 118.637 621.782, 118.339 622.559 C 117.999 623.445, 118.766 624.341, 120.398 624.961 C 121.829 625.505, 123.007 626.299, 123.015 626.725 C 123.024 627.151, 123.439 628.146, 123.939 628.936 C 124.692 630.126, 125.117 630.147, 126.424 629.063 C 127.725 627.983, 128 627.988, 128 629.092 C 128 630.089, 128.414 630.015, 129.627 628.802 C 132.386 626.042, 130.652 618.769, 126.090 613.974 C 122.512 610.212, 121.994 610.001, 116.405 610.015 C 111.177 610.028, 110.082 610.401, 106.856 613.265 M 165.055 663.620 C 165.001 668.663, 168.145 680.545, 170.033 682.433 C 170.565 682.965, 171 684.174, 171 685.119 C 171 686.994, 172.328 689.864, 178.579 701.500 C 180.056 704.250, 182.218 707.693, 183.382 709.152 C 188.676 715.781, 190.564 718.361, 191.403 720.114 C 191.899 721.151, 192.813 722, 193.432 722 C 194.052 722, 195.220 722.955, 196.029 724.123 C 196.838 725.290, 198.063 726.833, 198.750 727.551 C 199.438 728.269, 200 729.154, 200 729.518 C 200 731.125, 228.845 760.488, 229.642 759.691 C 230.356 758.978, 228.369 755.734, 224.871 751.902 C 223.567 750.472, 220.250 746.478, 217.500 743.025 C 214.750 739.572, 211.713 735.903, 210.750 734.873 C 209.787 733.843, 209 732.788, 209 732.529 C 209 732.271, 206.300 728.469, 203 724.080 C 199.700 719.692, 197 715.822, 197 715.479 C 197 714.487, 194.240 712, 193.139 712 C 192.587 712, 191.849 711.100, 191.500 710 C 191.151 708.900, 190.446 708, 189.933 708 C 189.420 708, 189 707.475, 189 706.834 C 189 706.193, 187.038 702.480, 184.640 698.584 C 180.103 691.211, 170.581 672.151, 167.113 663.500 L 165.109 658.500 165.055 663.620 M 452.500 693.732 C 448.481 694.312, 439.291 697.437, 432.588 700.502 C 429.585 701.876, 426.800 703, 426.399 703 C 425.594 703, 402.668 714.322, 399.523 716.273 C 389.814 722.296, 383.281 726.597, 382.172 727.696 C 381.442 728.421, 379.867 729.533, 378.672 730.169 C 373.690 732.820, 356.786 748.064, 360.341 746.699 C 361.245 746.353, 362.003 746.718, 362.187 747.590 C 362.419 748.687, 363.356 748.285, 365.821 746.026 C 370.499 741.740, 378.126 736, 379.144 736 C 379.615 736, 380 736.450, 380 737 C 380 737.550, 379.619 738, 379.154 738 C 377.829 738, 366.998 748.988, 367.015 750.314 C 367.025 751.061, 367.303 751.130, 367.765 750.500 C 368.565 749.412, 370.022 748.546, 378.762 743.964 C 381.941 742.298, 385.905 739.660, 387.572 738.103 C 389.239 736.545, 392.861 733.522, 395.622 731.385 C 398.383 729.248, 403.085 725.540, 406.071 723.143 C 409.057 720.747, 412.704 717.837, 414.175 716.677 C 415.647 715.517, 416.590 714.145, 416.271 713.629 C 415.941 713.096, 416.237 713.028, 416.957 713.474 C 417.654 713.904, 418.511 713.834, 418.862 713.319 C 419.539 712.324, 434.685 703, 435.624 703 C 435.928 703, 439.093 701.650, 442.658 700 C 446.223 698.350, 449.463 697, 449.858 697 C 450.254 697, 452.342 696.100, 454.500 695 C 458.401 693.011, 458.234 692.905, 452.500 693.732 M 426 716.876 C 420.104 719.330, 413.382 724.840, 398.812 739.160 C 389.864 747.954, 387.894 750.610, 392.610 747.520 C 394.046 746.579, 396.280 746.012, 397.575 746.259 C 399.412 746.610, 401.379 745.314, 406.538 740.354 C 410.173 736.860, 413.591 734, 414.133 734 C 414.675 734, 414.836 733.544, 414.492 732.988 C 414.148 732.431, 415.724 730.068, 417.994 727.738 C 427.363 718.119, 428.349 717.018, 427.934 716.643 C 427.695 716.427, 426.825 716.532, 426 716.876 M 456.500 767.635 C 451 771.134, 445.600 774.455, 444.500 775.015 C 443.400 775.576, 440.250 777.389, 437.500 779.045 C 434.750 780.702, 431.375 782.519, 430 783.083 C 428.625 783.648, 424.575 785.483, 421 787.162 C 417.425 788.841, 411.575 791.555, 408 793.194 C 404.425 794.833, 400.719 796.585, 399.764 797.087 C 398.809 797.589, 397.234 798.007, 396.264 798.015 C 395.294 798.024, 393.825 798.500, 393 799.073 C 391.347 800.222, 399.764 799.650, 410.500 797.883 C 416.096 796.962, 427.082 792.441, 427.833 790.750 C 428.017 790.337, 428.635 790, 429.207 790 C 430.637 790, 444.466 781.534, 446.725 779.275 C 447.734 778.266, 450.683 775.915, 453.280 774.051 C 455.876 772.186, 458 770.287, 458 769.830 C 458 769.374, 458.387 769, 458.860 769 C 459.887 769, 467.403 762.047, 466.870 761.590 C 466.667 761.415, 462 764.135, 456.500 767.635" stroke="none" fill="#070707" fill-rule="evenodd"/></svg>